<svg width="198" height="198" viewBox="0 0 198 198" fill="none" xmlns="http://www.w3.org/2000/svg">
<g filter="url(#filter0_d)">
<circle cx="99.1619" cy="98.075" r="51.075" fill="url(#paint0_linear)"/>
<mask id="mask0" mask-type="alpha" maskUnits="userSpaceOnUse" x="48" y="47" width="103" height="103">
<path d="M150.237 98.075C150.237 126.283 127.37 149.15 99.1619 149.15C70.954 149.15 48.0869 126.283 48.0869 98.075C48.0869 69.8671 70.954 47 99.1619 47C127.37 47 150.237 69.8671 150.237 98.075Z" fill="url(#paint1_linear)"/>
</mask>
<g mask="url(#mask0)">
<g style="mix-blend-mode:overlay">
<path fill-rule="evenodd" clip-rule="evenodd" d="M90.6127 87.967C84.0825 88.9035 60.0634 88.5094 48.87 88.1952L44.8911 87.7858C43.1601 89.9533 40.4252 94.0615 43.3333 93.1544C46.2414 92.2474 76.2842 93.697 90.9421 94.5352C97.3468 100.679 110.34 96.5313 117.164 93.715C122.623 91.462 144.283 92.3171 154.43 93.0262L156.645 85.8646C157.13 85.7148 157.014 85.6885 156.69 85.7192L156.645 85.8646C155.862 86.1064 153.51 86.6698 147.927 87.8334C138.887 89.7179 122.403 88.3901 115.291 87.4907C104.819 82.5153 100.904 84.2098 96.6455 86.0529C94.8633 86.8242 93.021 87.6217 90.6127 87.967ZM103.533 93.1547C107.696 92.8906 110.989 91.4101 110.89 89.8478C110.791 88.2856 107.337 87.2333 103.174 87.4974C99.0123 87.7615 95.7185 89.242 95.8176 90.8042C95.9168 92.3664 99.3712 93.4187 103.533 93.1547Z" fill="white"/>
</g>
<g style="mix-blend-mode:overlay">
<path d="M65.5 113.5C52.7 113.9 48.1667 112.333 47.5 111.5H41C45.8333 115.833 57.5 123.1 65.5 117.5C73.5 111.9 85.8333 115.167 91 117.5C93 119.667 102.1 122.3 122.5 115.5C148 107 146 115 148.5 115C150.5 115 150.333 111.667 150 110C138.4 105.2 126.5 109 122 111.5C116 113.5 101.4 116.7 91 113.5C80.6 110.3 69.6667 112.167 65.5 113.5Z" fill="#FFFF09"/>
</g>
<g style="mix-blend-mode:overlay">
<path d="M65.5 115.804C52.7 116.204 48.1667 114.637 47.5 113.804H41C45.8333 118.137 57.5 125.404 65.5 119.804C73.5 114.204 85.8333 117.471 91 119.804C93 121.971 102.1 124.604 122.5 117.804C148 109.304 146 117.304 148.5 117.304C150.5 117.304 150.333 113.971 150 112.304C138.4 107.504 126.5 111.304 122 113.804C116 115.804 101.4 119.004 91 115.804C80.6 112.604 69.6667 114.471 65.5 115.804Z" fill="black"/>
</g>
<path d="M136.5 132.5C132.5 134.1 86.5 134.833 64 135C63.5 136.667 62.8 140.3 64 141.5C65.2 142.7 108.833 141 130.5 140C134.167 136.833 140.5 130.9 136.5 132.5Z" fill="#FFFF00"/>
<path d="M80.0001 56.9999C72.5001 52.9999 59.0001 56.9999 58.0001 56.9999C57.0001 58 55.1001 60.2 55.5001 61C55.9001 61.8 112.333 62 140.5 62V56.9999L137.5 55C134.5 55 128.1 55.4 126.5 56.9999C124.9 58.5999 117.167 57.6666 113.5 56.9999C110.167 56.1666 101.5 54.8 93.5001 56C85.5001 57.2 81.1667 57.1666 80.0001 56.9999Z" fill="#FFFF0A"/>
<g style="mix-blend-mode:overlay">
<path d="M80 66.5C73.2 64.1 62.8333 65.8333 58.5 67L58 61.5L122.5 62H135L137 61.5L141 66.5C136.667 65.3333 127.5 63.4 125.5 65C123.5 66.6 108.667 65.6667 101.5 65C97.1667 66.5 86.8 68.9 80 66.5Z" fill="black"/>
</g>
<path fill-rule="evenodd" clip-rule="evenodd" d="M57.5 66.6079C61.8333 65.4412 72.2 63.7079 79 66.1079C85.8 68.5079 96.1667 66.1079 100.5 64.6079C107.667 65.2746 122.5 66.2079 124.5 64.6079C125.042 64.1741 126.112 64 127.468 64C131.116 64 136.842 65.2576 140 66.1079L138.314 64H146V71C139.681 69.4979 126.758 68.8468 99 69.4463C68.5136 72.7952 52.4853 73.4614 53 71V64H57.2629L57.5 66.6079Z" fill="#FFFF09"/>
</g>
</g>
<defs>
<filter id="filter0_d" x="38.0869" y="41" width="122.15" height="122.15" filterUnits="userSpaceOnUse" color-interpolation-filters="sRGB">
<feFlood flood-opacity="0" result="BackgroundImageFix"/>
<feColorMatrix in="SourceAlpha" type="matrix" values="0 0 0 0 0 0 0 0 0 0 0 0 0 0 0 0 0 0 127 0"/>
<feOffset dy="4"/>
<feGaussianBlur stdDeviation="5"/>
<feColorMatrix type="matrix" values="0 0 0 0 0 0 0 0 0 0 0 0 0 0 0 0 0 0 1 0"/>
<feBlend mode="normal" in2="BackgroundImageFix" result="effect1_dropShadow"/>
<feBlend mode="normal" in="SourceGraphic" in2="effect1_dropShadow" result="shape"/>
</filter>
<linearGradient id="paint0_linear" x1="60.0869" y1="159.5" x2="141.587" y2="67.5" gradientUnits="userSpaceOnUse">
<stop stop-color="#FAFF00"/>
<stop offset="1" stop-color="#89B706"/>
</linearGradient>
<linearGradient id="paint1_linear" x1="60.0869" y1="159.5" x2="141.587" y2="67.5" gradientUnits="userSpaceOnUse">
<stop stop-color="#FAFF00"/>
<stop offset="1" stop-color="#89B706"/>
</linearGradient>
</defs>
</svg>
