<svg width="285" height="669" viewBox="0 0 285 669" fill="none" xmlns="http://www.w3.org/2000/svg">
<mask id="mask0" mask-type="alpha" maskUnits="userSpaceOnUse" x="0" y="0" width="285" height="669">
<rect x="0.0869141" y="0.484619" width="284.087" height="668.113" rx="10" fill="white"/>
</mask>
<g mask="url(#mask0)">
<path d="M1069.73 1390.9C1069.73 1903.4 654.226 2318.8 141.826 2318.8C-370.674 2318.9 -786.174 1903.4 -786.174 1390.9C-786.174 878.4 -370.674 463 141.726 463C654.226 463 1069.73 878.4 1069.73 1390.9Z" fill="url(#paint0_linear)"/>
<path d="M-1.07373 401.299C0.82627 400.699 3.52625 399.599 6.52625 397.999C10.0262 396.199 12.3262 394.499 14.8262 392.599C18.6262 389.799 22.6262 386.899 28.0262 382.899C28.8262 382.299 29.6263 381.599 30.4263 380.799C31.7263 379.699 33.1262 378.299 33.5262 377.599C33.5262 377.599 35.4263 379.799 35.4263 381.899C35.4263 383.899 35.6263 400.999 36.9263 402.799C38.2263 404.599 47.1262 416.899 47.1262 416.899C47.1262 416.899 49.1262 417.799 51.0262 426.599C51.0262 426.599 49.6262 443.199 59.3262 450.599C69.0262 457.999 71.0262 466.399 73.3262 474.599C73.3262 474.599 8.22623 480.199 -0.173767 488.099L-1.07373 401.299Z" fill="#A01292"/>
<path d="M33.5262 377.599C33.5262 377.599 35.2262 379.399 35.3262 381.199C35.4262 382.999 35.8262 399.499 36.3262 400.999C36.3262 400.999 36.5262 402.499 37.0262 402.999L47.1262 416.999C47.1262 416.999 49.2262 417.999 51.0262 426.699C51.0262 426.699 49.7262 440.999 57.3262 448.799C57.3262 448.799 66.5262 455.799 69.1262 462.199C70.5262 465.599 55.2262 457.899 44.6262 454.999C35.0262 452.299 30.0262 454.699 30.2262 450.599C30.5262 443.799 21.1262 427.499 20.0262 425.399C19.9262 425.299 20.1262 385.399 33.5262 377.599Z" fill="#E94C87"/>
<path d="M33.5262 377.599C33.5262 377.599 35.2262 379.399 35.3262 381.199C35.4262 382.999 35.8262 399.499 36.3262 400.999C36.3262 400.999 36.5262 402.499 37.0262 402.999L47.1262 416.999C47.1262 416.999 49.2263 417.999 51.0263 426.699C51.0263 426.699 49.7262 440.999 57.3262 448.799C57.3262 448.799 65.2262 456.499 69.1262 462.199C73.2262 468.299 46.3263 445.499 41.2263 437.799C36.4263 430.499 36.2263 421.599 36.2263 421.599C36.2263 421.599 20.1263 385.399 33.5262 377.599Z" fill="#FF9898"/>
<path d="M284.026 385.598L259.526 357.898C259.526 357.898 224.326 347.198 216.626 350.798L200.326 354.898C200.326 354.898 193.726 352.898 191.626 355.898C191.626 355.898 183.826 361.998 177.526 363.598L163.626 388.598C163.626 388.598 176.926 417.198 170.726 473.898C170.726 473.898 234.526 473.898 284.126 488.198L284.026 385.598Z" fill="#A01292"/>
<path d="M259.726 358.198C259.726 358.198 217.026 363.498 213.226 362.998C213.226 362.998 198.126 358.098 201.326 355.498C201.326 355.498 202.826 353.798 219.326 350.098C219.426 350.098 230.426 348.498 259.726 358.198Z" fill="#FF9898"/>
<path d="M177.226 363.999C177.226 363.999 182.226 366.899 196.626 365.099C196.626 365.099 190.326 373.399 188.226 373.299C188.226 373.299 187.726 379.499 197.926 379.799C197.926 379.799 179.526 384.399 176.326 383.699C176.326 383.699 179.926 391.199 182.326 398.299C182.326 398.299 174.626 392.699 172.826 387.199C172.826 387.199 171.926 405.799 174.826 413.599C174.826 413.599 173.426 418.099 172.626 418.899C171.926 419.699 171.026 420.999 171.026 420.999C171.026 420.999 168.926 399.899 163.526 388.399L177.226 363.999Z" fill="#FF9898"/>
<path d="M227.526 387.698L208.526 385.598C192.326 378.298 216.026 370.498 217.026 369.698L258.926 358.498C259.226 358.298 259.126 357.798 258.726 357.698C257.226 357.298 253.926 356.298 249.726 355.198C252.226 355.898 254.826 356.698 257.726 357.598C258.226 357.798 258.126 358.498 257.626 358.498C248.926 359.598 216.826 363.398 213.326 362.998H213.226C212.326 362.698 198.226 357.998 201.326 355.498C201.326 355.498 202.126 354.598 209.126 352.598L200.426 354.798C200.326 354.798 200.226 354.798 200.226 354.798C199.326 354.498 193.526 352.998 191.626 355.898C191.626 355.898 183.926 361.898 177.726 363.498C177.626 363.498 177.526 363.598 177.426 363.698L163.526 388.498L176.926 364.398C177.026 364.198 177.326 364.098 177.526 364.198C178.926 364.798 184.026 366.498 195.426 365.298C195.826 365.298 196.126 365.698 195.826 366.098C194.226 368.098 190.426 372.698 188.526 373.298C188.226 373.398 188.126 373.598 188.126 373.898C188.226 375.198 189.226 378.598 194.926 379.598C195.426 379.698 195.526 380.498 194.926 380.598C190.026 381.798 180.426 383.898 176.926 383.898C176.526 383.898 176.326 384.298 176.526 384.598C177.426 386.498 179.726 391.698 181.626 396.898C181.826 397.398 181.226 397.698 180.826 397.398C178.926 395.798 175.326 392.598 173.426 389.198C173.226 388.798 172.526 388.898 172.526 389.398C172.426 394.398 172.326 407.298 174.626 413.598C174.626 413.698 174.626 413.798 174.626 413.898C174.326 414.698 173.126 418.398 172.526 419.098C171.826 419.898 170.926 421.198 170.926 421.198C170.926 421.198 168.926 400.298 163.426 388.698C164.226 390.498 176.426 419.098 170.526 473.898C182.026 472.198 224.926 465.498 226.226 451.398C226.626 447.398 223.626 442.198 219.326 434.498C213.426 424.098 207.426 418.298 209.326 415.298C210.826 412.998 216.826 412.398 216.826 412.398C220.026 412.298 221.226 413.598 227.526 387.698Z" fill="#E94C87"/>
<path d="M217.026 350.598C217.626 350.498 218.226 350.298 218.926 350.198C218.226 350.298 217.626 350.398 217.026 350.598Z" fill="#E94C87"/>
<path d="M207.826 430.598C207.826 430.598 210.626 439.998 210.226 444.698C209.826 449.398 213.126 444.898 213.126 444.098C213.126 444.098 215.026 441.198 215.326 444.898C215.326 444.898 216.926 448.998 216.626 453.298C216.326 457.598 219.526 454.498 220.226 452.198C220.926 449.898 225.126 451.598 224.826 453.598C224.526 455.598 223.726 456.498 223.726 456.498C223.726 456.498 228.526 452.498 225.126 445.598C221.726 438.698 220.226 431.998 217.426 431.098" fill="#A01292"/>
<path d="M179.326 418.298C179.326 418.298 182.126 430.598 182.626 437.198L183.826 432.798C183.826 432.798 185.026 438.598 185.026 445.698C185.026 445.698 186.926 443.098 187.026 440.898C187.126 438.698 188.526 449.598 188.026 452.798C188.026 452.798 192.426 432.198 191.726 427.898C191.726 427.898 190.726 426.898 192.526 426.098C192.526 426.098 193.526 425.598 193.926 425.498C194.326 425.398 198.726 424.998 199.126 424.698C199.126 424.698 201.426 424.198 199.926 423.398C198.426 422.598 191.926 421.598 187.726 421.298C187.726 421.298 183.726 420.898 182.826 420.998C182.026 420.698 180.926 420.198 179.926 419.098C179.726 418.898 179.526 418.598 179.326 418.298Z" fill="#A01292"/>
<path d="M247.826 429.898C247.826 429.898 262.926 415.298 250.026 415.298H188.026C188.026 415.298 172.326 416.198 182.926 421.198C182.926 421.198 190.226 421.298 197.926 422.998C205.626 424.698 194.026 425.698 194.026 425.698C194.026 425.698 185.126 428.598 200.926 430.098C212.226 431.198 222.926 431.398 228.226 431.498C230.226 431.498 237.326 431.098 238.226 432.898" fill="#FF9898"/>
<path d="M209.526 415.198C209.526 415.198 214.226 416.898 212.626 420.598C212.626 420.598 209.726 419.898 210.326 422.898C210.926 425.898 207.826 430.598 207.826 430.598L234.626 431.498C234.626 431.498 238.526 431.998 238.126 432.798C237.726 433.598 247.926 429.698 247.926 429.698C247.926 429.698 256.326 422.198 255.026 417.198C255.026 417.198 253.926 414.798 248.426 415.198C242.926 415.498 209.526 415.198 209.526 415.198Z" fill="#E94C87"/>
<path d="M193.426 469.598C193.426 469.598 168.226 461.998 163.626 456.598C159.026 451.198 131.926 463.698 129.626 467.298C129.626 467.298 117.126 474.298 110.526 473.798C103.926 473.298 90.7263 476.798 87.4263 480.398C84.1263 483.998 155.326 472.098 179.426 473.898C203.426 475.798 193.426 469.598 193.426 469.598Z" fill="#A01292"/>
<path d="M163.026 456.098C163.026 456.098 167.026 457.398 168.926 460.298C168.926 460.298 165.126 458.198 164.926 457.898C164.726 457.598 164.126 457.398 163.526 456.698C162.926 455.998 163.026 456.098 163.026 456.098Z" fill="#E94C87"/>
<path d="M139.426 461.198C148.526 458.398 156.826 455.998 160.826 455.198C160.826 455.198 145.126 453.298 141.226 455.398C141.226 455.398 135.526 456.598 131.626 458.498C127.826 460.398 117.326 472.898 113.726 471.098C113.726 471.098 93.2263 475.798 89.4263 478.798C89.4263 478.798 100.126 474.498 105.626 473.998C111.126 473.498 112.626 473.998 113.226 473.698C116.426 471.998 123.826 473.398 128.126 467.998C128.226 467.898 128.126 467.798 128.326 467.798" fill="#FF9898"/>
<path d="M310.126 545.398C318.226 545.198 243.526 502.198 176.126 529.198L135.426 557.098C135.426 557.098 201.226 535.398 202.426 535.798C203.626 536.198 246.726 531.598 249.526 533.998C249.626 533.998 294.426 536.798 310.126 545.398Z" fill="#FF9898"/>
<path d="M135.426 557.099C135.426 557.099 304.526 548.999 309.626 545.099C328.126 531.299 226.426 492.799 135.426 557.099Z" fill="#A01292"/>
<path d="M-138.474 623.299C-136.974 622.299 -15.4739 580.498 73.9261 590.598C163.326 600.698 -138.474 623.299 -138.474 623.299Z" fill="#FF9898"/>
<path d="M-138.474 623.298C-147.874 623.998 -155.174 666.898 -155.174 666.898C-140.874 643.898 125.026 617.598 125.026 617.598C121.926 603.398 90.6262 592.398 90.6262 592.398" fill="#A01292"/>
</g>
<defs>
<linearGradient id="paint0_linear" x1="141.776" y1="462.959" x2="141.776" y2="2318.85" gradientUnits="userSpaceOnUse">
<stop stop-color="#EE6A6D"/>
<stop offset="0.114583" stop-color="#FF5A98"/>
</linearGradient>
</defs>
</svg>
