<svg width="198" height="198" viewBox="0 0 198 198" fill="none" xmlns="http://www.w3.org/2000/svg">
<g filter="url(#filter0_d)">
<path d="M98.2277 144.455C123.759 144.455 144.455 123.759 144.455 98.2277C144.455 72.6968 123.759 52 98.2277 52C72.6968 52 52 72.6968 52 98.2277C52 123.759 72.6968 144.455 98.2277 144.455Z" fill="url(#paint0_linear)"/>
</g>
<path fill-rule="evenodd" clip-rule="evenodd" d="M51.7708 100.415C49.041 101.385 44.8826 103.218 41.0888 105.822C37.0009 108.628 32.4513 112.936 31.7522 118.741C31.5476 120.44 31.6445 122.122 32.2658 123.641C32.9187 125.237 34.0538 126.411 35.4593 127.14C38.0017 128.46 41.0848 128.162 43.4489 127.661C48.4351 126.607 54.007 123.779 56.4911 122.315C56.8107 122.127 57.1768 121.922 57.597 121.686C60.2405 120.202 65.0248 117.516 73.8489 110.36C83.999 102.128 99.5197 87.9693 123.594 62.7613C126.93 59.2685 129.626 56.6556 131.779 54.7637C132.488 54.1408 133.124 53.6076 133.694 53.154C133.272 54.3475 132.736 55.6646 132.129 57.0312C131.073 59.4046 129.843 61.8345 128.713 63.8879L133.849 69.0241C135.319 66.4987 137.069 63.1489 138.525 59.8748C140.007 56.5403 141.434 52.7475 141.619 49.974C141.668 49.2371 141.651 48.3334 141.384 47.4298C141.102 46.4803 140.479 45.3447 139.224 44.6224C138.008 43.9217 136.737 43.923 135.785 44.0963C134.842 44.268 133.936 44.6521 133.11 45.0954C129.945 46.7945 125.261 50.8808 118.532 57.9267C94.5705 83.0163 79.2755 96.9462 69.4396 104.923C61.0654 111.715 56.6699 114.181 54.0832 115.632L54.0829 115.632C53.6552 115.872 53.277 116.085 52.9384 116.284C50.7055 117.599 45.8969 119.989 42.0001 120.813C40.0316 121.229 39.045 121.078 38.7298 120.948C38.6867 120.81 38.6023 120.406 38.702 119.578C39.0216 116.924 41.3312 114.146 45.0501 111.593C47.6129 109.834 50.4299 108.47 52.6144 107.583C52.1145 105.016 51.8268 101.204 51.7708 100.415Z" fill="url(#paint1_linear)"/>
<path fill-rule="evenodd" clip-rule="evenodd" d="M69.7233 136.517C76.4443 133.003 94.9738 124.01 115.518 116.059C128.702 110.955 139 104.973 146.028 99.3715C149.536 96.5758 152.299 93.8196 154.198 91.252C156.019 88.7876 157.359 86.0744 157.251 83.4555C157.208 82.4079 156.944 81.3507 156.33 80.4138C155.706 79.4614 154.847 78.8263 153.935 78.4433C152.249 77.7347 150.355 77.8688 148.872 78.1389C146.039 78.6548 142.907 80.0224 140.727 81.1751L142.633 86.9247C142.785 86.8705 142.935 86.8033 143.081 86.7226C145.023 85.6496 147.797 84.4333 149.947 84.0418C150.461 83.9483 150.873 83.9149 151.183 83.9224C151.205 83.9229 151.227 83.9237 151.248 83.9246C151.182 84.5617 150.758 85.8107 149.373 87.6853C147.878 89.7078 145.529 92.097 142.289 94.6793C135.821 99.8339 126.079 105.537 113.352 110.463C92.5033 118.533 73.7139 127.656 66.8757 131.235L66.8104 131.269L66.7468 131.306C62.2191 133.968 59.0882 136.039 57.3531 137.582C56.9057 137.981 56.478 138.407 56.1262 138.857C55.8102 139.261 55.3592 139.927 55.1912 140.796C54.9827 141.876 55.2603 143.093 56.1972 143.987C56.9366 144.692 57.8113 144.922 58.3045 145.015C59.3369 145.21 60.5698 145.129 61.715 144.987C62.9442 144.835 64.4098 144.566 66.0572 144.208C69.3565 143.491 73.577 142.378 78.4556 140.992C78.9774 140.844 79.4276 140.566 79.7811 140.204C79.6621 140.246 79.5948 140.269 79.5948 140.269C79.3906 140.801 75.0858 138.101 72.4662 136.458C72.4555 136.451 72.4449 136.445 72.4342 136.438C70.7877 136.884 69.2606 137.281 67.8639 137.626C68.4448 137.274 69.0641 136.904 69.7233 136.517ZM60.833 142.58C60.8334 142.58 60.8355 142.577 60.8391 142.572C60.8421 142.568 60.846 142.562 60.8509 142.555C60.8378 142.572 60.8325 142.58 60.833 142.58Z" fill="url(#paint2_linear)"/>
<defs>
<filter id="filter0_d" x="42" y="46" width="112.455" height="112.455" filterUnits="userSpaceOnUse" color-interpolation-filters="sRGB">
<feFlood flood-opacity="0" result="BackgroundImageFix"/>
<feColorMatrix in="SourceAlpha" type="matrix" values="0 0 0 0 0 0 0 0 0 0 0 0 0 0 0 0 0 0 127 0"/>
<feOffset dy="4"/>
<feGaussianBlur stdDeviation="5"/>
<feColorMatrix type="matrix" values="0 0 0 0 0 0 0 0 0 0 0 0 0 0 0 0 0 0 1 0"/>
<feBlend mode="normal" in2="BackgroundImageFix" result="effect1_dropShadow"/>
<feBlend mode="normal" in="SourceGraphic" in2="effect1_dropShadow" result="shape"/>
</filter>
<linearGradient id="paint0_linear" x1="137.059" y1="122.882" x2="44.8604" y2="44.0386" gradientUnits="userSpaceOnUse">
<stop stop-color="#EA5252"/>
<stop offset="1" stop-color="#BD14C0"/>
</linearGradient>
<linearGradient id="paint1_linear" x1="34.1524" y1="123.175" x2="107.617" y2="22.6479" gradientUnits="userSpaceOnUse">
<stop stop-color="#FF884B"/>
<stop offset="1" stop-color="#E8DB7F"/>
</linearGradient>
<linearGradient id="paint2_linear" x1="156.339" y1="81.3355" x2="59.5367" y2="142.296" gradientUnits="userSpaceOnUse">
<stop stop-color="#FD8E4F"/>
<stop offset="1" stop-color="#F1BA6B"/>
</linearGradient>
</defs>
</svg>
