<svg width="285" height="771" viewBox="0 0 285 771" fill="none" xmlns="http://www.w3.org/2000/svg">
<rect x="0.347656" y="102.715" width="284.087" height="668.113" rx="12" fill="url(#paint0_linear)"/>
<mask id="mask0" mask-type="alpha" maskUnits="userSpaceOnUse" x="0" y="102" width="285" height="669">
<rect x="0.347656" y="102.715" width="284.087" height="668.113" rx="12" fill="white"/>
</mask>
<g mask="url(#mask0)">
<path d="M628.67 986.438C628.67 1258.32 408.263 1478.73 136.376 1478.73C-135.51 1478.73 -355.918 1258.32 -355.918 986.438C-355.918 714.552 -135.51 494.145 136.376 494.145C408.263 494.145 628.67 714.552 628.67 986.438Z" fill="#D80000"/>
</g>
<path d="M190.401 133.441C207.209 106.831 199.264 71.6336 172.654 54.8251C146.044 38.0167 110.846 45.9622 94.0379 72.5721C77.2295 99.1819 85.175 134.379 111.785 151.188C138.395 167.996 173.592 160.051 190.401 133.441Z" fill="url(#paint1_radial)"/>
<path d="M196.413 137.239C215.319 107.308 206.382 67.7184 176.452 48.8123C146.521 29.9063 106.931 38.8434 88.0254 68.774C69.1193 98.7045 78.0565 138.294 107.987 157.2C137.918 176.106 177.507 167.169 196.413 137.239Z" fill="url(#paint2_radial)"/>
<path d="M205.349 142.883C227.372 108.018 216.961 61.9001 182.096 39.8768C147.23 17.8535 101.113 28.2642 79.0895 63.1297C57.0663 97.9952 67.477 144.113 102.342 166.136C137.208 188.159 183.325 177.749 205.349 142.883Z" fill="url(#paint3_radial)"/>
<g filter="url(#filter0_d)">
<path fill-rule="evenodd" clip-rule="evenodd" d="M142.268 152.793C148.193 152.793 153.878 151.769 159.157 149.887C159.21 149.825 159.266 149.766 159.313 149.719L159.313 149.719L159.872 145.528L163.784 143.013C163.504 142.361 163.169 140.386 164.063 137.704C165.274 137.797 167.919 137.704 168.814 136.586C169.328 135.943 169.428 135.359 169.523 134.806C169.633 134.16 169.736 133.557 170.49 132.954C171.608 132.059 172.26 130.718 172.446 130.159V129.88L174.402 129.321L174.123 128.203C173.564 127.924 173.061 127.253 175.52 126.806C177.979 126.359 179.898 125.129 180.55 124.571L179.711 122.615C180.457 122.428 182.003 121.664 182.226 120.1C182.45 118.535 182.506 117.026 182.506 116.467C182.226 116.281 181.667 115.852 181.667 115.629C181.667 115.405 182.413 114.79 182.785 114.511L183.344 113.114L185.579 113.673L186.697 113.114L185.859 111.996L185.021 110.878C185.766 110.972 187.368 110.934 187.815 110.04C188.262 109.146 189.864 108.922 190.609 108.922L191.168 108.364L192.301 107.684C192.476 105.978 192.565 104.247 192.565 102.496C192.565 74.717 170.046 52.198 142.268 52.198C129.548 52.198 117.931 56.9195 109.074 64.7054C109.345 64.5166 109.605 64.3515 109.854 64.2137L110.412 67.5668L109.295 68.4051L110.412 68.964L111.701 70.5108C111.557 70.4066 111.306 70.4179 110.971 70.92C110.924 70.9914 110.874 71.0697 110.821 71.1513C110.383 71.837 109.794 72.7571 109.295 71.7583L108.095 71.9983C108.056 72.0703 107.993 72.1737 107.898 72.3172C107.45 72.9878 109.574 73.7143 110.692 73.9938C110.599 74.2732 110.301 74.8321 109.854 74.8321H107.339C107.618 74.5526 108.009 73.9938 107.339 73.9938C106.668 73.9938 105.01 73.8075 104.265 73.7143V74.5526L102.309 73.7143L101.471 73.1555C101.597 72.9493 101.729 72.74 101.868 72.5284C95.6492 80.8982 91.97 91.2672 91.97 102.496C91.97 130.274 114.489 152.793 142.268 152.793ZM111.81 70.6406C111.786 70.5938 111.75 70.5458 111.701 70.5108L111.81 70.6406ZM194.521 108.643C194.111 117.634 186.701 141.014 161.269 150.837L161.828 146.646L165.74 144.131C165.46 143.479 165.125 141.504 166.019 138.821C167.23 138.915 169.875 138.821 170.77 137.704C171.284 137.06 171.384 136.476 171.479 135.924C171.589 135.277 171.692 134.674 172.446 134.071C173.564 133.177 174.216 131.836 174.402 131.277V130.997L176.358 130.439L176.079 129.321C175.52 129.041 175.017 128.371 177.476 127.924C179.935 127.477 181.854 126.247 182.506 125.688L181.667 123.732C182.413 123.546 183.959 122.782 184.182 121.217C184.406 119.652 184.462 118.144 184.462 117.585C184.182 117.398 183.623 116.97 183.623 116.746C183.623 116.523 184.369 115.908 184.741 115.629L185.3 114.232L187.535 114.79L188.653 114.232L187.815 113.114L186.977 111.996C187.722 112.089 189.324 112.052 189.771 111.158C190.218 110.264 191.82 110.04 192.565 110.04L193.124 109.481L194.521 108.643ZM106.5 61.1398C103.986 62.537 100.167 66.7284 98.1175 70.0816L98.9558 70.6405L100.912 71.4788V70.6405C101.657 70.7336 103.315 70.9199 103.986 70.9199C104.656 70.9199 104.265 71.4788 103.986 71.7582H106.5C106.948 71.7582 107.246 71.1993 107.339 70.9199C106.221 70.6405 104.097 69.914 104.544 69.2433C104.64 69.0999 104.703 68.9965 104.742 68.9244L105.942 68.6845C106.441 69.6833 107.03 68.7631 107.468 68.0775C107.521 67.9958 107.571 67.9175 107.618 67.8462C107.953 67.344 108.204 67.3327 108.348 67.437L108.456 67.5667C108.433 67.5199 108.397 67.4719 108.348 67.437L107.059 65.8901L105.942 65.3313L107.059 64.493L106.5 61.1398Z" fill="url(#paint4_linear)"/>
</g>
<mask id="mask1" mask-type="alpha" maskUnits="userSpaceOnUse" x="161" y="108" width="34" height="43">
<path d="M161.269 150.837C186.701 141.014 194.111 117.633 194.521 108.643L193.124 109.481L192.565 110.04C191.82 110.04 190.218 110.264 189.771 111.158C189.324 112.052 187.722 112.089 186.976 111.996L187.815 113.114L188.653 114.231L187.535 114.79L185.3 114.231L184.741 115.629C184.368 115.908 183.623 116.523 183.623 116.746C183.623 116.97 184.182 117.398 184.462 117.585C184.462 118.143 184.406 119.652 184.182 121.217C183.959 122.782 182.412 123.546 181.667 123.732L182.506 125.688C181.854 126.247 179.935 127.476 177.476 127.924C175.017 128.371 175.52 129.041 176.079 129.321L176.358 130.438L174.402 130.997V131.277C174.216 131.836 173.564 133.177 172.446 134.071C171.049 135.189 171.887 136.306 170.769 137.704C169.875 138.821 167.23 138.915 166.019 138.821C165.125 141.504 165.46 143.479 165.74 144.131L161.828 146.645L161.269 150.837Z" fill="#A90C0C"/>
</mask>
<g mask="url(#mask1)">
<path d="M193.962 113.673C192.872 114.017 190.878 114.912 188.932 116.385M182.226 125.409C182.319 125.036 183.12 123.397 185.579 119.82C186.524 118.446 187.719 117.303 188.932 116.385M188.932 116.385C188.932 120.79 187.591 129.768 182.226 130.439C181.474 130.533 180.828 130.658 180.27 130.811M161.269 148.043C162.532 147.279 164.233 146.213 166.019 145.034C167.228 144.236 168.475 143.387 169.652 142.545M177.476 132.421C176.276 133.868 176.428 135.837 175.24 137.704C174.503 138.862 172.249 140.686 169.652 142.545M177.476 132.421C178.221 132.133 179.823 132.339 180.27 135.468C180.717 138.598 178.594 143.851 177.476 146.087M177.476 132.421C178.03 131.752 178.873 131.195 180.27 130.811M178.873 127.365C178.687 128.359 178.705 130.439 180.27 130.811M169.652 142.545C169.372 141.895 168.813 140.498 166.019 139.101" stroke="#FF3D00"/>
</g>
<mask id="mask2" mask-type="alpha" maskUnits="userSpaceOnUse" x="91" y="51" width="102" height="102">
<path d="M142.268 152.234C170.046 152.234 192.565 129.715 192.565 101.937C192.565 74.1579 170.046 51.6389 142.268 51.6389C114.489 51.6389 91.97 74.1579 91.97 101.937C91.97 129.715 114.489 152.234 142.268 152.234Z" fill="url(#paint5_linear)"/>
</mask>
<g mask="url(#mask2)">
<g filter="url(#filter1_bi)">
<path d="M92.5288 109.761C94.578 111.903 99.9617 115.405 105.103 112.276C110.245 109.146 111.53 110.972 111.53 112.276L116.001 109.761L118.516 106.967V109.761C116.56 110.692 114.939 111.996 124.105 109.761C133.27 107.525 129.6 112.928 126.619 115.908M126.619 115.908L130.811 102.775L138.076 106.967L140.87 102.775L138.914 108.643M126.619 115.908L113.766 119.82V125.688C114.418 128.762 113.933 133.401 106.78 127.365C99.6264 121.329 99.5146 129.694 100.353 134.63M138.914 108.643L143.944 104.452C143.292 103.707 142.826 101.602 146.18 99.1426C150.371 96.0688 152.048 97.1865 152.327 92.9951C152.551 89.6419 154.469 88.6173 155.401 88.5242M138.914 108.643C141.988 110.972 146.124 116.97 138.076 122.335C130.028 127.7 133.233 129.787 135.841 130.159C139.939 130.159 147.297 131.054 143.944 134.63C139.753 139.101 132.208 137.704 132.208 141.616C132.208 144.746 135.189 150.744 136.679 153.352M155.401 88.5242C158.661 89.4556 165.181 90.7596 165.181 88.5242C165.181 85.7299 167.696 81.5384 169.093 81.259C174.123 82.9356 176.079 83.4944 178.035 80.1413C179.823 74.7762 176.544 75.4841 174.682 76.5086C175.054 78.2784 175.576 82.6002 174.682 85.7299C173.564 89.6419 173.005 90.7596 171.049 92.9951C171.049 97.7454 173.284 98.3042 178.035 94.3922C182.785 90.4802 180.55 92.7157 183.623 88.5242C186.697 84.3327 185.3 83.7738 184.741 80.7001C184.741 75.1115 181.202 70.5474 179.432 68.964C179.991 67.1943 181.835 63.3754 184.741 62.2576M155.401 88.5242C151.023 88.5242 143.05 86.9594 146.18 80.7001C150.092 72.876 136.679 80.7001 136.679 71.4789C136.679 62.2576 127.178 65.8903 129.693 60.8605C131.705 56.8367 138.914 53.2227 142.268 51.9187M215.478 96.0688H210.728" stroke="#FF3D00" stroke-width="5" stroke-linecap="round" stroke-linejoin="round"/>
</g>
<path d="M94.4849 85.7297C97.9312 88.7103 105.83 92.8831 109.854 85.7297C113.877 78.5762 119.354 77.1604 121.59 77.3467L136.958 73.1553" stroke="#FF3D00"/>
<path d="M121.589 77.3467C120.285 78.185 118.068 81.3146 119.633 87.1268C121.198 92.9389 116.932 96.4411 114.603 97.4657C110.505 101.191 101.582 110.487 98.6759 117.864C95.7698 125.241 91.8764 126.899 90.293 126.806" stroke="#FF3D00"/>
<path d="M147.577 51.9187C149.719 52.5707 152.718 55.8866 147.577 63.9342C141.15 73.9938 133.046 86.5681 139.473 94.1128C144.615 100.148 148.694 110.599 150.092 115.07C150.464 114.604 152.271 114.176 156.519 116.188C161.828 118.703 166.019 121.497 158.475 129.042C152.439 135.077 154.656 147.764 156.519 153.352" stroke="#FF3D00"/>
<path d="M191.727 92.1566C186.418 93.3674 175.967 97.4658 176.638 104.172C177.308 110.878 173.191 116.095 171.049 117.864C166.578 117.771 158.978 115.238 164.343 105.849C169.708 96.4598 167.696 89.6417 166.019 87.4062" stroke="#FF3D00"/>
<path d="M147.297 63.3751C148.229 69.5225 151.992 80.4203 159.592 74.8317C167.193 69.2431 170.21 69.3362 170.769 70.0814C173.284 72.5031 176.973 74.8317 171.608 64.7722C166.243 54.7127 159.872 49.4035 157.357 48.0063" stroke="#FF3D00"/>
<path d="M115.442 121.217C120.472 119.82 129.861 119.653 127.178 130.159C124.496 140.666 127.737 149.626 129.693 152.793" stroke="#FF3D00"/>
</g>
<mask id="mask3" mask-type="alpha" maskUnits="userSpaceOnUse" x="98" y="61" width="11" height="11">
<path d="M98.1174 70.0817C100.167 66.7285 103.985 62.537 106.5 61.1399L107.059 64.4931L105.942 65.3314L107.059 65.8902L108.348 67.437C108.397 67.472 108.433 67.52 108.456 67.5668L108.348 67.437C108.204 67.3328 107.953 67.3441 107.618 67.8462C107.171 68.5169 106.5 69.8023 105.942 68.6845L104.742 68.9245C104.703 68.9966 104.64 69.1 104.544 69.2434C104.097 69.914 106.221 70.6405 107.339 70.92C107.246 71.1994 106.947 71.7583 106.5 71.7583H103.985C104.265 71.4788 104.656 70.92 103.985 70.92C103.315 70.92 101.657 70.7337 100.912 70.6405V71.4788L98.9557 70.6405L98.1174 70.0817Z" fill="#6F2B2B"/>
</mask>
<g mask="url(#mask3)">
<path d="M100.073 67.2873C100.725 67.9393 102.365 68.908 103.706 67.5667C105.383 65.8901 102.868 66.449 104.544 65.3313C105.886 64.4371 106.221 62.3507 106.221 61.4192L105.103 60.3015" stroke="#FF3D00"/>
<path d="M100.073 67.0078V71.1993" stroke="#FF3D00"/>
<path d="M102.588 68.1255C102.775 68.6844 103.315 69.858 103.986 70.0815C104.656 70.3051 105.383 71.2924 105.662 71.7581V72.8758" stroke="#FF3D00"/>
</g>
<path d="M51.1055 267.807H54.6035V260.406V259.317H55.6934H59.9473C61.1602 259.317 62.2852 259.106 63.3398 258.684C64.377 258.262 65.3438 257.612 66.2227 256.733C67.084 255.871 67.7344 254.922 68.1738 253.903C68.5957 252.883 68.8066 251.74 68.8066 250.51C68.8066 249.297 68.5957 248.172 68.1738 247.117C67.7168 246.08 67.0664 245.131 66.2051 244.27C65.3086 243.391 64.3594 242.74 63.3398 242.319C62.3027 241.897 61.1777 241.668 59.9473 241.668H55.6934H51.1055V250.492V260.406V267.807ZM54.6035 254.764V250.492V246.221V245.131H55.6934H59.9473C60.6855 245.131 61.3887 245.272 62.0215 245.535C62.6543 245.817 63.2168 246.203 63.7441 246.731C64.2715 247.311 64.6582 247.891 64.9043 248.471C65.168 249.086 65.3086 249.772 65.3086 250.51C65.3086 251.283 65.168 251.969 64.9043 252.567C64.623 253.199 64.2363 253.78 63.7441 254.307C63.1816 254.852 62.6016 255.239 62.0039 255.485C61.3711 255.748 60.6855 255.871 59.9473 255.871L55.6934 255.854H54.6035V254.764ZM81.832 241.668V267.807H96.7031V264.362H86.4199H85.3301V263.254V241.668H81.832ZM119.889 241.422L108.656 267.807H112.4L114.334 263.5H119.871H125.443L127.377 267.807H131.121L119.889 241.422ZM115.617 260.688C116.32 259.053 117.023 257.295 117.744 255.397C118.465 253.516 119.186 251.74 119.906 250.088C120.609 251.74 121.312 253.516 122.016 255.397C122.719 257.295 123.439 259.053 124.16 260.688H119.871H115.617ZM144.129 241.405V267.877H147.627V252.092V250.088L164.695 268.281V241.615H161.197V256.24V259.352L144.129 241.405ZM178.758 241.615V267.877H183.346H193.629V264.397H183.346H182.256V263.289V257.576V256.487H183.346H190.781V253.006H183.346H182.256V251.899V246.186V245.096H183.346H193.629V241.615H178.758ZM211.453 241.668H205.582V245.131H211.453H212.561V246.221V267.807H216.059V246.221V245.131H217.166H223.037V241.668H217.166H211.453ZM125.52 291.516V326.531H131.637H145.348V321.891H131.637H130.184V320.414V312.797V311.344H131.637H141.551V306.703H131.637H130.184V305.227V297.61V296.156H131.637H145.348V291.516H125.52Z" fill="white"/>
<defs>
<filter id="filter0_d" x="81.97" y="46.198" width="122.551" height="120.595" filterUnits="userSpaceOnUse" color-interpolation-filters="sRGB">
<feFlood flood-opacity="0" result="BackgroundImageFix"/>
<feColorMatrix in="SourceAlpha" type="matrix" values="0 0 0 0 0 0 0 0 0 0 0 0 0 0 0 0 0 0 127 0"/>
<feOffset dy="4"/>
<feGaussianBlur stdDeviation="5"/>
<feColorMatrix type="matrix" values="0 0 0 0 0 0 0 0 0 0 0 0 0 0 0 0 0 0 1 0"/>
<feBlend mode="normal" in2="BackgroundImageFix" result="effect1_dropShadow"/>
<feBlend mode="normal" in="SourceGraphic" in2="effect1_dropShadow" result="shape"/>
</filter>
<filter id="filter1_bi" x="80.0288" y="39.418" width="147.95" height="126.435" filterUnits="userSpaceOnUse" color-interpolation-filters="sRGB">
<feFlood flood-opacity="0" result="BackgroundImageFix"/>
<feGaussianBlur in="BackgroundImage" stdDeviation="5"/>
<feComposite in2="SourceAlpha" operator="in" result="effect1_backgroundBlur"/>
<feBlend mode="normal" in="SourceGraphic" in2="effect1_backgroundBlur" result="shape"/>
<feColorMatrix in="SourceAlpha" type="matrix" values="0 0 0 0 0 0 0 0 0 0 0 0 0 0 0 0 0 0 127 0" result="hardAlpha"/>
<feOffset dy="4"/>
<feGaussianBlur stdDeviation="2"/>
<feComposite in2="hardAlpha" operator="arithmetic" k2="-1" k3="1"/>
<feColorMatrix type="matrix" values="0 0 0 0 0 0 0 0 0 0 0 0 0 0 0 0 0 0 0.25 0"/>
<feBlend mode="normal" in2="shape" result="effect2_innerShadow"/>
</filter>
<linearGradient id="paint0_linear" x1="142.391" y1="102.715" x2="142.391" y2="770.828" gradientUnits="userSpaceOnUse">
<stop stop-color="#FF0000" stop-opacity="0.46"/>
<stop offset="1" stop-color="#014223" stop-opacity="0"/>
</linearGradient>
<radialGradient id="paint1_radial" cx="0" cy="0" r="1" gradientUnits="userSpaceOnUse" gradientTransform="translate(142.219 103.006) rotate(57.6036) scale(54.3307)">
<stop stop-color="#FF3E01"/>
<stop offset="1" stop-color="#F83B00" stop-opacity="0.09"/>
</radialGradient>
<radialGradient id="paint2_radial" cx="0" cy="0" r="1" gradientUnits="userSpaceOnUse" gradientTransform="translate(142.219 103.006) rotate(57.6036) scale(61.1108)">
<stop stop-color="#FF3E01"/>
<stop offset="1" stop-color="#F83B00" stop-opacity="0.09"/>
</radialGradient>
<radialGradient id="paint3_radial" cx="0" cy="0" r="1" gradientUnits="userSpaceOnUse" gradientTransform="translate(142.219 103.006) rotate(57.6036) scale(71.1867)">
<stop stop-color="#FF3E01"/>
<stop offset="1" stop-color="#F83B00" stop-opacity="0.09"/>
</radialGradient>
<linearGradient id="paint4_linear" x1="177.476" y1="139.939" x2="86.6608" y2="55.5511" gradientUnits="userSpaceOnUse">
<stop stop-color="#212121"/>
<stop offset="1" stop-color="#373737"/>
</linearGradient>
<linearGradient id="paint5_linear" x1="118.851" y1="144.969" x2="165.516" y2="58.0658" gradientUnits="userSpaceOnUse">
<stop stop-color="#C72B3A"/>
<stop offset="1" stop-color="#F67150"/>
</linearGradient>
</defs>
</svg>
