<svg width="293" height="775" viewBox="0 0 293 775" fill="none" xmlns="http://www.w3.org/2000/svg">
<rect x="4.08691" y="98.0889" width="284.087" height="668.113" rx="12" fill="url(#paint0_linear)"/>
<mask id="mask0" mask-type="alpha" maskUnits="userSpaceOnUse" x="4" y="98" width="285" height="669">
<rect x="4.08691" y="98.0889" width="284.087" height="668.113" rx="12" fill="white"/>
</mask>
<g mask="url(#mask0)">
<path d="M632.409 981.812C632.409 1253.7 412.002 1474.11 140.116 1474.11C-131.771 1474.11 -352.178 1253.7 -352.178 981.812C-352.178 709.926 -131.771 489.518 140.116 489.518C412.002 489.518 632.409 709.926 632.409 981.812Z" fill="url(#paint1_linear)"/>
</g>
<g filter="url(#filter0_d)">
<path d="M188.356 125.217C203.094 101.887 196.127 71.0263 172.796 56.2891C149.466 41.552 118.605 48.5184 103.868 71.8492C89.1309 95.1799 96.0974 126.04 119.428 140.777C142.759 155.515 173.619 148.548 188.356 125.217Z" fill="#00FFD1"/>
</g>
<path opacity="0.1" d="M193.502 128.468C210.035 102.295 202.22 67.6758 176.047 51.1434C149.874 34.611 115.255 42.4261 98.7223 68.5988C82.19 94.7716 90.005 129.391 116.178 145.923C142.351 162.456 176.97 154.641 193.502 128.468Z" fill="url(#paint2_radial)"/>
<path opacity="0.1" d="M198.751 131.783C217.114 102.712 208.433 64.258 179.362 45.8946C150.291 27.5312 111.837 36.2118 93.4735 65.2833C75.1101 94.3548 83.7907 132.808 112.862 151.172C141.934 169.535 180.387 160.855 198.751 131.783Z" fill="url(#paint3_radial)"/>
<path opacity="0.1" d="M206.5 136.678C227.567 103.327 217.609 59.2119 184.257 38.145C150.906 17.0781 106.791 27.0367 85.724 60.3882C64.6571 93.7397 74.6157 137.854 107.967 158.921C141.319 179.988 185.433 170.03 206.5 136.678Z" fill="url(#paint4_radial)"/>
<path fill-rule="evenodd" clip-rule="evenodd" d="M189.295 125.81C196.721 114.054 198.756 100.427 196.054 87.8255C194.726 94.0988 183.288 130.164 179.978 136.563C179.856 136.734 179.713 136.93 179.541 137.168L179.54 137.17C183.243 133.963 186.544 130.166 189.295 125.81ZM195.523 85.764L195.84 86.8721C193.429 76.5886 187.847 67.0434 179.454 59.8311C178.91 72.4924 164.447 135.339 159.737 147.759C166.409 145.915 172.72 142.718 178.222 138.272C182.021 129.557 192.534 101.306 195.523 85.764ZM153.826 149.025C147.879 149.936 141.758 149.804 135.758 148.563C135.903 148.558 136.025 148.537 136.119 148.499C137.505 147.945 161.576 85.4198 153.095 47.9238C160.102 48.8862 167.02 51.3271 173.389 55.3503C174.206 55.866 175.002 56.4009 175.779 56.9542C173.401 79.7673 165.815 128.644 153.826 149.025ZM131.583 147.513C127.19 146.207 122.901 144.284 118.835 141.716C116.842 140.457 114.965 139.083 113.209 137.607C114.956 135.648 127.303 93.8864 125.016 87.1521C123.13 81.6003 130.152 59.4857 133.898 49.1224L134.003 48.9129C139.219 47.6405 144.633 47.1862 150.033 47.5973C149.839 47.6326 149.641 47.6778 149.443 47.7345C149.635 49.1745 149.042 51.4226 148.318 54.1686L148.318 54.1687C146.949 59.3625 145.11 66.3374 147.223 72.995C150.213 82.4179 146.931 88.7778 143.571 95.2902C141.384 99.5276 139.164 103.829 138.617 109.082C138.227 112.827 138.597 115.613 138.938 118.181C139.809 124.749 140.491 129.889 127.791 146.001C128.758 146.426 130.177 147.01 131.583 147.513ZM122.112 53.437C125.014 51.8958 128.05 50.6431 131.173 49.6895L130.957 50.2308C127.586 55.9083 121.484 70.7692 122.795 87.1521C124.12 103.716 115.488 126.229 110.933 135.577C107.796 132.604 105.098 129.287 102.862 125.725C102.31 114.059 105.614 89.3327 122.112 53.437ZM102.929 71.2561C107.312 64.3185 113.089 58.7965 119.665 54.8242C112.198 71.1012 100.312 102.461 101.038 122.575C92.7007 106.909 92.7737 87.3338 102.929 71.2561Z" fill="#00A958"/>
<path d="M60.1165 263.18H63.6145V255.78V254.69H64.7043H68.9583C70.1711 254.69 71.2961 254.479 72.3508 254.057C73.3879 253.635 74.3547 252.985 75.2336 252.106C76.095 251.245 76.7454 250.295 77.1848 249.276C77.6067 248.256 77.8176 247.114 77.8176 245.883C77.8176 244.67 77.6067 243.545 77.1848 242.491C76.7278 241.454 76.0774 240.504 75.2161 239.643C74.3196 238.764 73.3704 238.114 72.3508 237.692C71.3137 237.27 70.1887 237.042 68.9583 237.042H64.7043H60.1165V245.866V255.78V263.18ZM63.6145 250.137V245.866V241.594V240.504H64.7043H68.9583C69.6965 240.504 70.3997 240.645 71.0325 240.909C71.6653 241.19 72.2278 241.577 72.7551 242.104C73.2825 242.684 73.6692 243.264 73.9153 243.844C74.179 244.459 74.3196 245.145 74.3196 245.883C74.3196 246.657 74.179 247.342 73.9153 247.94C73.634 248.573 73.2473 249.153 72.7551 249.68C72.1926 250.225 71.6125 250.612 71.0149 250.858C70.3821 251.122 69.6965 251.245 68.9583 251.245L64.7043 251.227H63.6145V250.137ZM90.843 237.042V263.18H105.714V259.735H95.4309H94.3411V258.627V237.042H90.843ZM128.9 236.795L117.667 263.18H121.411L123.345 258.874H128.882H134.454L136.388 263.18H140.132L128.9 236.795ZM124.628 256.061C125.331 254.426 126.034 252.668 126.755 250.77C127.476 248.889 128.197 247.114 128.917 245.461C129.62 247.114 130.323 248.889 131.027 250.77C131.73 252.668 132.45 254.426 133.171 256.061H128.882H124.628ZM153.14 236.778V263.25H156.638V247.465V245.461L173.706 263.655V236.989H170.208V251.614V254.725L153.14 236.778ZM187.769 236.989V263.25H192.357H202.64V259.77H192.357H191.267V258.663V252.95V251.86H192.357H199.792V248.379H192.357H191.267V247.272V241.559V240.469H192.357H202.64V236.989H187.769ZM220.464 237.042H214.593V240.504H220.464H221.572V241.594V263.18H225.07V241.594V240.504H226.177H232.048V237.042H226.177H220.464ZM134.531 286.959V321.811H139.429H140.624H142.124H147.093C148.452 321.811 149.765 321.553 151.031 321.038C152.296 320.499 153.421 319.725 154.406 318.741C155.366 317.756 156.116 316.631 156.632 315.366C157.148 314.147 157.406 312.834 157.406 311.381C157.406 309.975 157.148 308.639 156.632 307.42C156.116 306.178 155.366 305.053 154.406 304.022C154.101 303.741 153.749 303.483 153.374 303.202C152.882 302.92 152.39 302.639 151.921 302.405L150.468 301.749L151.241 300.366C151.663 299.616 152.015 298.795 152.273 297.952C152.507 297.131 152.624 296.428 152.624 295.842C152.624 294.647 152.39 293.522 151.968 292.467C151.499 291.459 150.866 290.522 150.046 289.678C149.202 288.834 148.218 288.155 147.093 287.663C145.945 287.194 144.773 286.959 143.601 286.959H140.976H134.531ZM139.148 315.881V306.717V305.264H140.624C140.952 305.264 141.281 305.264 141.632 305.264C141.984 305.264 142.335 305.241 142.71 305.241C143.437 305.241 144.163 305.217 144.89 305.217C145.616 305.217 146.39 305.217 147.187 305.264C147.913 305.311 148.64 305.522 149.366 305.85C150.023 306.155 150.632 306.577 151.218 307.139C151.757 307.702 152.179 308.358 152.507 309.108C152.788 309.858 152.952 310.631 152.952 311.381C152.952 312.155 152.788 312.928 152.507 313.678C152.156 314.475 151.734 315.131 151.218 315.624C150.702 316.186 150.07 316.608 149.32 316.913C148.57 317.217 147.82 317.358 147.093 317.358H142.124H140.624H139.148V315.881ZM139.148 299.803V292.889V291.436H140.624H140.976H143.601C144.21 291.436 144.82 291.553 145.382 291.788C145.945 292.069 146.46 292.397 146.882 292.795C147.304 293.288 147.656 293.803 147.89 294.342C148.124 294.905 148.241 295.514 148.241 296.147C148.241 296.803 148.124 297.413 147.89 297.975C147.656 298.538 147.304 299.053 146.882 299.522C146.366 300.038 145.851 300.413 145.359 300.647C144.937 300.834 144.374 300.975 143.648 301.069L143.554 301.092C143.366 301.092 143.179 301.116 142.968 301.116C141.984 301.186 141.234 301.233 140.671 301.256L139.148 301.327V299.803Z" fill="white"/>
<defs>
<filter id="filter0_d" x="67.1841" y="24.605" width="157.856" height="157.856" filterUnits="userSpaceOnUse" color-interpolation-filters="sRGB">
<feFlood flood-opacity="0" result="BackgroundImageFix"/>
<feColorMatrix in="SourceAlpha" type="matrix" values="0 0 0 0 0 0 0 0 0 0 0 0 0 0 0 0 0 0 127 0"/>
<feOffset dy="5"/>
<feGaussianBlur stdDeviation="5"/>
<feColorMatrix type="matrix" values="0 0 0 0 0 0 0 0 0 0 0 0 0 0 0 0 0 0 1 0"/>
<feBlend mode="normal" in2="BackgroundImageFix" result="effect1_dropShadow"/>
<feBlend mode="normal" in="SourceGraphic" in2="effect1_dropShadow" result="shape"/>
</filter>
<linearGradient id="paint0_linear" x1="146.13" y1="98.0889" x2="146.13" y2="766.202" gradientUnits="userSpaceOnUse">
<stop stop-color="#392058"/>
<stop offset="1" stop-color="#014223" stop-opacity="0"/>
</linearGradient>
<linearGradient id="paint1_linear" x1="140.116" y1="489.518" x2="140.116" y2="1474.11" gradientUnits="userSpaceOnUse">
<stop stop-color="#FFD337"/>
<stop offset="0.421875" stop-color="#46D691"/>
</linearGradient>
<radialGradient id="paint2_radial" cx="0" cy="0" r="1" gradientUnits="userSpaceOnUse" gradientTransform="translate(146.112 98.5333) rotate(29.331) scale(162.069)">
<stop stop-color="#00FFD1"/>
<stop offset="1" stop-color="#00FFD1" stop-opacity="0"/>
</radialGradient>
<radialGradient id="paint3_radial" cx="0" cy="0" r="1" gradientUnits="userSpaceOnUse" gradientTransform="translate(146.112 98.5332) rotate(29.331) scale(180.019)">
<stop stop-color="#00FFD1"/>
<stop offset="1" stop-color="#00FFD1" stop-opacity="0"/>
</radialGradient>
<radialGradient id="paint4_radial" cx="0" cy="0" r="1" gradientUnits="userSpaceOnUse" gradientTransform="translate(146.112 98.5332) rotate(29.331) scale(206.522)">
<stop stop-color="#00FFD1"/>
<stop offset="1" stop-color="#00FFD1" stop-opacity="0"/>
</radialGradient>
</defs>
</svg>
