<svg width="285" height="725" viewBox="0 0 285 725" fill="none" xmlns="http://www.w3.org/2000/svg">
<rect width="284.087" height="668.113" rx="12" transform="matrix(-1 0 0 1 284.087 56.8013)" fill="url(#paint0_linear)"/>
<mask id="mask0" mask-type="alpha" maskUnits="userSpaceOnUse" x="0" y="56" width="285" height="669">
<rect width="284.087" height="668.113" rx="12" transform="matrix(-1 0 0 1 284.087 56.8013)" fill="white"/>
</mask>
<g mask="url(#mask0)">
<path d="M-344.235 940.524C-344.235 1212.41 -123.828 1432.82 148.058 1432.82C419.945 1432.82 640.352 1212.41 640.352 940.524C640.352 668.638 419.945 448.23 148.058 448.23C-123.828 448.23 -344.235 668.638 -344.235 940.524Z" fill="#8EF011"/>
</g>
<g filter="url(#filter0_d)">
<circle cx="142.162" cy="57.075" r="51.075" fill="url(#paint1_linear)"/>
<mask id="mask1" mask-type="alpha" maskUnits="userSpaceOnUse" x="91" y="6" width="103" height="103">
<path d="M193.237 57.075C193.237 85.2829 170.37 108.15 142.162 108.15C113.954 108.15 91.0869 85.2829 91.0869 57.075C91.0869 28.8671 113.954 6 142.162 6C170.37 6 193.237 28.8671 193.237 57.075Z" fill="url(#paint2_linear)"/>
</mask>
<g mask="url(#mask1)">
<g style="mix-blend-mode:overlay">
<path fill-rule="evenodd" clip-rule="evenodd" d="M133.613 46.967C127.083 47.9035 103.063 47.5094 91.87 47.1952L87.8911 46.7858C86.1601 48.9533 83.4252 53.0615 86.3333 52.1544C89.2414 51.2474 119.284 52.697 133.942 53.5352C140.347 59.6788 153.34 55.5313 160.164 52.715C165.623 50.462 187.283 51.3171 197.43 52.0262L199.645 44.8646C200.13 44.7148 200.014 44.6885 199.69 44.7192L199.645 44.8646C198.862 45.1064 196.51 45.6698 190.927 46.8334C181.887 48.7179 165.403 47.3901 158.291 46.4907C147.819 41.5153 143.904 43.2098 139.645 45.0529C137.863 45.8242 136.021 46.6216 133.613 46.967ZM146.533 52.1547C150.696 51.8906 153.989 50.41 153.89 48.8478C153.791 47.2856 150.337 46.2333 146.174 46.4974C142.012 46.7615 138.719 48.242 138.818 49.8042C138.917 51.3664 142.371 52.4187 146.533 52.1547Z" fill="white"/>
</g>
<g style="mix-blend-mode:overlay">
<path d="M108.5 72.5C95.7 72.9 91.1667 71.3333 90.5 70.5H84C88.8333 74.8333 100.5 82.1 108.5 76.5C116.5 70.9 128.833 74.1667 134 76.5C136 78.6667 145.1 81.3 165.5 74.5C191 66 189 74 191.5 74C193.5 74 193.333 70.6667 193 69C181.4 64.2 169.5 68 165 70.5C159 72.5 144.4 75.7 134 72.5C123.6 69.3 112.667 71.1667 108.5 72.5Z" fill="#FFFF09"/>
</g>
<g style="mix-blend-mode:overlay">
<path d="M108.5 74.804C95.7 75.204 91.1667 73.6373 90.5 72.804H84C88.8333 77.1373 100.5 84.404 108.5 78.804C116.5 73.204 128.833 76.4706 134 78.804C136 80.9706 145.1 83.604 165.5 76.804C191 68.304 189 76.304 191.5 76.304C193.5 76.304 193.333 72.9706 193 71.304C181.4 66.504 169.5 70.304 165 72.804C159 74.804 144.4 78.004 134 74.804C123.6 71.604 112.667 73.4706 108.5 74.804Z" fill="black"/>
</g>
<path d="M179.5 91.5C175.5 93.1 129.5 93.8333 107 94C106.5 95.6666 105.8 99.3 107 100.5C108.2 101.7 151.833 100 173.5 99C177.167 95.8333 183.5 89.9 179.5 91.5Z" fill="#FFFF00"/>
<path d="M123 15.9999C115.5 11.9999 102 15.9999 101 15.9999C100 17 98.1001 19.2 98.5001 20C98.9001 20.8 155.333 21 183.5 21V15.9999L180.5 14C177.5 14 171.1 14.4 169.5 15.9999C167.9 17.5999 160.167 16.6666 156.5 15.9999C153.167 15.1666 144.5 13.8 136.5 15C128.5 16.2 124.167 16.1666 123 15.9999Z" fill="#FFFF0A"/>
<g style="mix-blend-mode:overlay">
<path d="M123 25.5C116.2 23.1 105.833 24.8333 101.5 26L101 20.5L165.5 21H178L180 20.5L184 25.5C179.667 24.3333 170.5 22.4 168.5 24C166.5 25.6 151.667 24.6667 144.5 24C140.167 25.5 129.8 27.9 123 25.5Z" fill="black"/>
</g>
<path fill-rule="evenodd" clip-rule="evenodd" d="M100.5 25.6079C104.833 24.4412 115.2 22.7079 122 25.1079C128.8 27.5079 139.167 25.1079 143.5 23.6079C150.667 24.2746 165.5 25.2079 167.5 23.6079C168.042 23.1741 169.112 23 170.469 23C174.116 23 179.842 24.2576 183 25.1079L181.314 23H189V30C182.681 28.4979 169.759 27.8468 142 28.4463C111.514 31.7952 95.4854 32.4614 96.0001 30V23H100.263L100.5 25.6079Z" fill="#FFFF09"/>
</g>
</g>
<path d="M58.7578 222.807H62.2559V215.406V214.317H63.3457H67.5996C68.8125 214.317 69.9375 214.106 70.9922 213.684C72.0293 213.262 72.9961 212.612 73.875 211.733C74.7363 210.871 75.3867 209.922 75.8262 208.903C76.248 207.883 76.459 206.74 76.459 205.51C76.459 204.297 76.248 203.172 75.8262 202.117C75.3691 201.08 74.7188 200.131 73.8574 199.27C72.9609 198.391 72.0117 197.74 70.9922 197.319C69.9551 196.897 68.8301 196.668 67.5996 196.668H63.3457H58.7578V205.492V215.406V222.807ZM62.2559 209.764V205.492V201.221V200.131H63.3457H67.5996C68.3379 200.131 69.041 200.272 69.6738 200.535C70.3066 200.817 70.8691 201.203 71.3965 201.731C71.9238 202.311 72.3105 202.891 72.5566 203.471C72.8203 204.086 72.9609 204.772 72.9609 205.51C72.9609 206.283 72.8203 206.969 72.5566 207.567C72.2754 208.199 71.8887 208.78 71.3965 209.307C70.834 209.852 70.2539 210.239 69.6562 210.485C69.0234 210.748 68.3379 210.871 67.5996 210.871L63.3457 210.854H62.2559V209.764ZM89.4844 196.668V222.807H104.355V219.362H94.0723H92.9824V218.254V196.668H89.4844ZM127.541 196.422L116.309 222.807H120.053L121.986 218.5H127.523H133.096L135.029 222.807H138.773L127.541 196.422ZM123.27 215.688C123.973 214.053 124.676 212.295 125.396 210.397C126.117 208.516 126.838 206.74 127.559 205.088C128.262 206.74 128.965 208.516 129.668 210.397C130.371 212.295 131.092 214.053 131.812 215.688H127.523H123.27ZM151.781 196.405V222.877H155.279V207.092V205.088L172.348 223.281V196.615H168.85V211.24V214.352L151.781 196.405ZM186.41 196.615V222.877H190.998H201.281V219.397H190.998H189.908V218.289V212.576V211.487H190.998H198.434V208.006H190.998H189.908V206.899V201.186V200.096H190.998H201.281V196.615H186.41ZM219.105 196.668H213.234V200.131H219.105H220.213V201.221V222.807H223.711V201.221V200.131H224.818H230.689V196.668H224.818H219.105ZM146.742 246.258L131.766 281.438H136.758L139.336 275.696H146.719H154.148L156.727 281.438H161.719L146.742 246.258ZM141.047 271.946C141.984 269.766 142.922 267.422 143.883 264.891C144.844 262.383 145.805 260.016 146.766 257.813C147.703 260.016 148.641 262.383 149.578 264.891C150.516 267.422 151.477 269.766 152.438 271.946H146.719H141.047Z" fill="white"/>
<defs>
<filter id="filter0_d" x="81.0869" y="0" width="122.15" height="122.15" filterUnits="userSpaceOnUse" color-interpolation-filters="sRGB">
<feFlood flood-opacity="0" result="BackgroundImageFix"/>
<feColorMatrix in="SourceAlpha" type="matrix" values="0 0 0 0 0 0 0 0 0 0 0 0 0 0 0 0 0 0 127 0"/>
<feOffset dy="4"/>
<feGaussianBlur stdDeviation="5"/>
<feColorMatrix type="matrix" values="0 0 0 0 0 0 0 0 0 0 0 0 0 0 0 0 0 0 1 0"/>
<feBlend mode="normal" in2="BackgroundImageFix" result="effect1_dropShadow"/>
<feBlend mode="normal" in="SourceGraphic" in2="effect1_dropShadow" result="shape"/>
</filter>
<linearGradient id="paint0_linear" x1="142.043" y1="0" x2="142.043" y2="668.113" gradientUnits="userSpaceOnUse">
<stop stop-color="#2D5A00"/>
<stop offset="1" stop-color="#014223" stop-opacity="0"/>
</linearGradient>
<linearGradient id="paint1_linear" x1="103.087" y1="118.5" x2="184.587" y2="26.5" gradientUnits="userSpaceOnUse">
<stop stop-color="#FAFF00"/>
<stop offset="1" stop-color="#89B706"/>
</linearGradient>
<linearGradient id="paint2_linear" x1="103.087" y1="118.5" x2="184.587" y2="26.5" gradientUnits="userSpaceOnUse">
<stop stop-color="#FAFF00"/>
<stop offset="1" stop-color="#89B706"/>
</linearGradient>
</defs>
</svg>
