<svg width="285" height="728" viewBox="0 0 285 728" fill="none" xmlns="http://www.w3.org/2000/svg">
<rect x="0.260742" y="59.4846" width="284.087" height="668.113" rx="10" fill="url(#paint0_linear)"/>
<mask id="mask0" mask-type="alpha" maskUnits="userSpaceOnUse" x="0" y="59" width="285" height="669">
<rect x="0.260742" y="59.4846" width="284.087" height="668.113" rx="10" fill="white"/>
</mask>
<g mask="url(#mask0)">
<path d="M1069.9 1449.9C1069.9 1962.4 654.4 2377.8 142 2377.8C-370.5 2377.9 -786 1962.4 -786 1449.9C-786 937.4 -370.5 522 141.9 522C654.4 522 1069.9 937.4 1069.9 1449.9Z" fill="url(#paint1_linear)"/>
<path d="M-0.899902 460.299C1.0001 459.699 3.70007 458.599 6.70007 456.999C10.2001 455.199 12.5001 453.499 15.0001 451.599C18.8001 448.799 22.8001 445.899 28.2001 441.899C29.0001 441.299 29.8001 440.599 30.6001 439.799C31.9001 438.699 33.3001 437.299 33.7001 436.599C33.7001 436.599 35.6001 438.799 35.6001 440.899C35.6001 442.899 35.8001 459.999 37.1001 461.799C38.4001 463.599 47.3 475.899 47.3 475.899C47.3 475.899 49.3001 476.799 51.2001 485.599C51.2001 485.599 49.8001 502.199 59.5001 509.599C69.2001 516.999 71.2001 525.399 73.5001 533.599C73.5001 533.599 8.40006 539.199 6.10352e-05 547.099L-0.899902 460.299Z" fill="#C22B2A"/>
<path d="M33.7002 436.599C33.7002 436.599 35.4002 438.399 35.5002 440.199C35.6002 441.999 36.0002 458.499 36.5002 459.999C36.5002 459.999 36.7002 461.499 37.2002 461.999L47.3001 475.999C47.3001 475.999 49.4002 476.999 51.2002 485.699C51.2002 485.699 49.9002 499.999 57.5002 507.799C57.5002 507.799 66.7001 514.799 69.3001 521.199C70.7001 524.599 55.4001 516.899 44.8001 513.999C35.2001 511.299 30.2002 513.699 30.4002 509.599C30.7002 502.799 21.3002 486.499 20.2002 484.399C20.1002 484.299 20.3002 444.399 33.7002 436.599Z" fill="#FE4A4B"/>
<path d="M33.7001 436.599C33.7001 436.599 35.4001 438.399 35.5001 440.199C35.6001 441.999 36.0001 458.499 36.5001 459.999C36.5001 459.999 36.7001 461.499 37.2001 461.999L47.3001 475.999C47.3001 475.999 49.4001 476.999 51.2001 485.699C51.2001 485.699 49.9001 499.999 57.5001 507.799C57.5001 507.799 65.4001 515.499 69.3001 521.199C73.4001 527.299 46.5001 504.499 41.4001 496.799C36.6001 489.499 36.4001 480.599 36.4001 480.599C36.4001 480.599 20.3001 444.399 33.7001 436.599Z" fill="#FF9898"/>
<path d="M284.2 444.598L259.7 416.898C259.7 416.898 224.5 406.198 216.8 409.798L200.5 413.898C200.5 413.898 193.9 411.898 191.8 414.898C191.8 414.898 184 420.998 177.7 422.598L163.8 447.598C163.8 447.598 177.1 476.198 170.9 532.898C170.9 532.898 234.7 532.898 284.3 547.198L284.2 444.598Z" fill="#C22B2A"/>
<path d="M259.9 417.198C259.9 417.198 217.2 422.498 213.4 421.998C213.4 421.998 198.3 417.098 201.5 414.498C201.5 414.498 203 412.798 219.5 409.098C219.6 409.098 230.6 407.498 259.9 417.198Z" fill="#FF6B6B"/>
<path d="M177.4 422.999C177.4 422.999 182.4 425.899 196.8 424.099C196.8 424.099 190.5 432.399 188.4 432.299C188.4 432.299 187.9 438.499 198.1 438.799C198.1 438.799 179.7 443.399 176.5 442.699C176.5 442.699 180.1 450.199 182.5 457.299C182.5 457.299 174.8 451.699 173 446.199C173 446.199 172.1 464.799 175 472.599C175 472.599 173.6 477.099 172.8 477.899C172.1 478.699 171.2 479.999 171.2 479.999C171.2 479.999 169.1 458.899 163.7 447.399L177.4 422.999Z" fill="#FF9898"/>
<path d="M227.7 446.698L208.7 444.598C192.5 437.298 216.2 429.498 217.2 428.698L259.1 417.498C259.4 417.298 259.3 416.798 258.9 416.698C257.4 416.298 254.1 415.298 249.9 414.198C252.4 414.898 255 415.698 257.9 416.598C258.4 416.798 258.3 417.498 257.8 417.498C249.1 418.598 217 422.398 213.5 421.998H213.4C212.5 421.698 198.4 416.998 201.5 414.498C201.5 414.498 202.3 413.598 209.3 411.598L200.6 413.798C200.5 413.798 200.4 413.798 200.4 413.798C199.5 413.498 193.7 411.998 191.8 414.898C191.8 414.898 184.1 420.898 177.9 422.498C177.8 422.498 177.7 422.598 177.6 422.698L163.7 447.498L177.1 423.398C177.2 423.198 177.5 423.098 177.7 423.198C179.1 423.798 184.2 425.498 195.6 424.298C196 424.298 196.3 424.698 196 425.098C194.4 427.098 190.6 431.698 188.7 432.298C188.4 432.398 188.3 432.598 188.3 432.898C188.4 434.198 189.4 437.598 195.1 438.598C195.6 438.698 195.7 439.498 195.1 439.598C190.2 440.798 180.6 442.898 177.1 442.898C176.7 442.898 176.5 443.298 176.7 443.598C177.6 445.498 179.9 450.698 181.8 455.898C182 456.398 181.4 456.698 181 456.398C179.1 454.798 175.5 451.598 173.6 448.198C173.4 447.798 172.7 447.898 172.7 448.398C172.6 453.398 172.5 466.298 174.8 472.598C174.8 472.698 174.8 472.798 174.8 472.898C174.5 473.698 173.3 477.398 172.7 478.098C172 478.898 171.1 480.198 171.1 480.198C171.1 480.198 169.1 459.298 163.6 447.698C164.4 449.498 176.6 478.098 170.7 532.898C182.2 531.198 225.1 524.498 226.4 510.398C226.8 506.398 223.8 501.198 219.5 493.498C213.6 483.098 207.6 477.298 209.5 474.298C211 471.998 217 471.398 217 471.398C220.2 471.298 221.4 472.598 227.7 446.698Z" fill="#FE4A4B"/>
<path d="M217.2 409.598C217.8 409.498 218.4 409.298 219.1 409.198C218.4 409.298 217.8 409.398 217.2 409.598Z" fill="#FE4A4B"/>
<path d="M208 489.598C208 489.598 210.8 498.998 210.4 503.698C210 508.398 213.3 503.898 213.3 503.098C213.3 503.098 215.2 500.198 215.5 503.898C215.5 503.898 217.1 507.998 216.8 512.298C216.5 516.598 219.7 513.498 220.4 511.198C221.1 508.898 225.3 510.598 225 512.598C224.7 514.598 223.9 515.498 223.9 515.498C223.9 515.498 228.7 511.498 225.3 504.598C221.9 497.698 220.4 490.998 217.6 490.098" fill="#C22B2A"/>
<path d="M179.5 477.298C179.5 477.298 182.3 489.598 182.8 496.198L184 491.798C184 491.798 185.2 497.598 185.2 504.698C185.2 504.698 187.1 502.098 187.2 499.898C187.3 497.698 188.7 508.598 188.2 511.798C188.2 511.798 192.6 491.198 191.9 486.898C191.9 486.898 190.9 485.898 192.7 485.098C192.7 485.098 193.7 484.598 194.1 484.498C194.5 484.398 198.9 483.998 199.3 483.698C199.3 483.698 201.6 483.198 200.1 482.398C198.6 481.598 192.1 480.598 187.9 480.298C187.9 480.298 183.9 479.898 183 479.998C182.2 479.698 181.1 479.198 180.1 478.098C179.9 477.898 179.7 477.598 179.5 477.298Z" fill="#C22B2A"/>
<path d="M248 488.898C248 488.898 263.1 474.298 250.2 474.298H188.2C188.2 474.298 172.5 475.198 183.1 480.198C183.1 480.198 190.4 480.298 198.1 481.998C205.8 483.698 194.2 484.698 194.2 484.698C194.2 484.698 185.3 487.598 201.1 489.098C212.4 490.198 223.1 490.398 228.4 490.498C230.4 490.498 237.5 490.098 238.4 491.898" fill="#FF9898"/>
<path d="M209.7 474.198C209.7 474.198 214.4 475.898 212.8 479.598C212.8 479.598 209.9 478.898 210.5 481.898C211.1 484.898 208 489.598 208 489.598L234.8 490.498C234.8 490.498 238.7 490.998 238.3 491.798C237.9 492.598 248.1 488.698 248.1 488.698C248.1 488.698 256.5 481.198 255.2 476.198C255.2 476.198 254.1 473.798 248.6 474.198C243.1 474.498 209.7 474.198 209.7 474.198Z" fill="#FE4A4B"/>
<path d="M193.6 528.598C193.6 528.598 168.4 520.998 163.8 515.598C159.2 510.198 132.1 522.698 129.8 526.298C129.8 526.298 117.3 533.298 110.7 532.798C104.1 532.298 90.9002 535.798 87.6002 539.398C84.3002 542.998 155.5 531.098 179.6 532.898C203.6 534.798 193.6 528.598 193.6 528.598Z" fill="#C22B2A"/>
<path d="M163.2 515.098C163.2 515.098 167.2 516.398 169.1 519.298C169.1 519.298 165.3 517.198 165.1 516.898C164.9 516.598 164.3 516.398 163.7 515.698C163.1 514.998 163.2 515.098 163.2 515.098Z" fill="#FE4A4B"/>
<path d="M139.6 520.198C148.7 517.398 157 514.998 161 514.198C161 514.198 145.3 512.298 141.4 514.398C141.4 514.398 135.7 515.598 131.8 517.498C128 519.398 117.5 531.898 113.9 530.098C113.9 530.098 93.4001 534.798 89.6001 537.798C89.6001 537.798 100.3 533.498 105.8 532.998C111.3 532.498 112.8 532.998 113.4 532.698C116.6 530.998 124 532.398 128.3 526.998C128.4 526.898 128.3 526.798 128.5 526.798" fill="#FF9898"/>
<path d="M310.3 604.398C318.4 604.198 243.7 561.198 176.3 588.198L135.6 616.098C135.6 616.098 201.4 594.398 202.6 594.798C203.8 595.198 246.9 590.598 249.7 592.998C249.8 592.998 294.6 595.798 310.3 604.398Z" fill="#FF9898"/>
<path d="M135.6 616.099C135.6 616.099 304.7 607.999 309.8 604.099C328.3 590.299 226.6 551.799 135.6 616.099Z" fill="#C22B2A"/>
<path d="M-138.3 682.299C-136.8 681.299 -15.3 639.498 74.1 649.598C163.5 659.698 -138.3 682.299 -138.3 682.299Z" fill="#FF9898"/>
<path d="M-138.3 682.298C-147.7 682.998 -155 725.898 -155 725.898C-140.7 702.898 125.2 676.598 125.2 676.598C122.1 662.398 90.8 651.398 90.8 651.398" fill="#C22B2A"/>
</g>
<g filter="url(#filter0_d)">
<path d="M144.877 100.529C170.407 100.529 191.104 79.832 191.104 54.3012C191.104 28.7703 170.407 8.07349 144.877 8.07349C119.346 8.07349 98.6489 28.7703 98.6489 54.3012C98.6489 79.832 119.346 100.529 144.877 100.529Z" fill="url(#paint2_linear)"/>
</g>
<path fill-rule="evenodd" clip-rule="evenodd" d="M98.7709 56.4152C96.041 57.3846 91.8827 59.2181 88.0889 61.8221C84.001 64.628 79.4514 68.9358 78.7523 74.7414C78.5477 76.4403 78.6446 78.1215 79.2659 79.6408C79.9187 81.2372 81.0538 82.4109 82.4594 83.1403C85.0017 84.4596 88.0849 84.1615 90.4489 83.6614C95.4352 82.6066 101.007 79.7786 103.491 78.3155C103.811 78.1272 104.177 77.9217 104.597 77.6858C107.241 76.202 112.025 73.5164 120.849 66.36C130.999 58.1281 146.52 43.9693 170.594 18.7613C173.93 15.2685 176.626 12.6556 178.779 10.7637C179.488 10.1408 180.124 9.60759 180.694 9.15396C180.272 10.3475 179.736 11.6646 179.129 13.0312C178.074 15.4046 176.843 17.8345 175.713 19.8879L180.849 25.0241C182.319 22.4987 184.07 19.1489 185.525 15.8748C187.007 12.5403 188.434 8.74747 188.619 5.97402C188.668 5.23709 188.651 4.33345 188.384 3.42985C188.103 2.48026 187.479 1.34467 186.224 0.622399C185.008 -0.078257 183.737 -0.0769621 182.785 0.0963365C181.842 0.268009 180.936 0.652129 180.11 1.09544C176.945 2.79452 172.261 6.88079 165.532 13.9267C141.571 39.0163 126.276 52.9462 116.44 60.9232C108.065 67.7149 103.67 70.181 101.083 71.6323L101.083 71.6324C100.655 71.8724 100.277 72.0846 99.9385 72.284C97.7056 73.5992 92.8969 75.9887 89.0002 76.813C87.0317 77.2294 86.045 77.078 85.7299 76.9483C85.6868 76.8105 85.6023 76.4064 85.7021 75.5783C86.0217 72.924 88.3313 70.146 92.0502 67.5934C94.6129 65.8344 97.4299 64.4701 99.6145 63.5833C99.1146 61.0165 98.8269 57.2039 98.7709 56.4152Z" fill="url(#paint3_linear)"/>
<path fill-rule="evenodd" clip-rule="evenodd" d="M116.723 92.5166C123.444 89.0033 141.974 80.0104 162.518 72.0586C175.702 66.9553 186 60.9727 193.028 55.3715C196.536 52.5758 199.299 49.8196 201.198 47.252C203.019 44.7876 204.359 42.0744 204.251 39.4555C204.208 38.4079 203.944 37.3507 203.33 36.4138C202.706 35.4614 201.847 34.8263 200.935 34.4433C199.249 33.7347 197.355 33.8688 195.872 34.1389C193.039 34.6548 189.907 36.0224 187.727 37.1751L189.633 42.9247C189.785 42.8705 189.935 42.8033 190.081 42.7226C192.023 41.6496 194.797 40.4333 196.947 40.0418C197.461 39.9483 197.873 39.9149 198.183 39.9224C198.205 39.9229 198.227 39.9237 198.248 39.9246C198.182 40.5617 197.758 41.8107 196.373 43.6853C194.878 45.7078 192.529 48.097 189.289 50.6793C182.821 55.8339 173.079 61.5366 160.352 66.4631C139.503 74.5329 120.714 83.6556 113.876 87.2348L113.81 87.269L113.747 87.3064C109.219 89.9676 106.088 92.0388 104.353 93.5825C103.906 93.9805 103.478 94.4068 103.126 94.8565C102.81 95.2605 102.359 95.9272 102.191 96.7965C101.983 97.8759 102.26 99.093 103.197 99.9868C103.937 100.692 104.811 100.922 105.304 101.015C106.337 101.21 107.57 101.129 108.715 100.987C109.944 100.835 111.41 100.566 113.057 100.208C116.356 99.4913 120.577 98.3778 125.456 96.992C125.977 96.8438 126.428 96.5663 126.781 96.204C126.662 96.2463 126.595 96.2692 126.595 96.2692C126.391 96.8007 122.086 94.1009 119.466 92.458C119.456 92.4513 119.445 92.4446 119.434 92.4379C117.788 92.8835 116.261 93.2812 114.864 93.6258C115.445 93.2739 116.064 92.9044 116.723 92.5166ZM107.833 98.5798C107.833 98.5797 107.835 98.5772 107.839 98.5721C107.842 98.568 107.846 98.5623 107.851 98.5549C107.838 98.5716 107.832 98.5799 107.833 98.5798Z" fill="url(#paint4_linear)"/>
<path d="M56.0186 224.576H59.5166V217.176V216.086H60.6064H64.8604C66.0732 216.086 67.1982 215.875 68.2529 215.453C69.29 215.031 70.2568 214.381 71.1357 213.502C71.9971 212.641 72.6475 211.691 73.0869 210.672C73.5088 209.652 73.7197 208.51 73.7197 207.279C73.7197 206.066 73.5088 204.941 73.0869 203.887C72.6299 202.85 71.9795 201.9 71.1182 201.039C70.2217 200.16 69.2725 199.51 68.2529 199.088C67.2158 198.666 66.0908 198.438 64.8604 198.438H60.6064H56.0186V207.262V217.176V224.576ZM59.5166 211.533V207.262V202.99V201.9H60.6064H64.8604C65.5986 201.9 66.3018 202.041 66.9346 202.305C67.5674 202.586 68.1299 202.973 68.6572 203.5C69.1846 204.08 69.5713 204.66 69.8174 205.24C70.0811 205.855 70.2217 206.541 70.2217 207.279C70.2217 208.053 70.0811 208.738 69.8174 209.336C69.5361 209.969 69.1494 210.549 68.6572 211.076C68.0947 211.621 67.5146 212.008 66.917 212.254C66.2842 212.518 65.5986 212.641 64.8604 212.641L60.6064 212.623H59.5166V211.533ZM86.7451 198.438V224.576H101.616V221.131H91.333H90.2432V220.023V198.438H86.7451ZM124.802 198.191L113.569 224.576H117.313L119.247 220.27H124.784H130.356L132.29 224.576H136.034L124.802 198.191ZM120.53 217.457C121.233 215.822 121.937 214.064 122.657 212.166C123.378 210.285 124.099 208.51 124.819 206.857C125.522 208.51 126.226 210.285 126.929 212.166C127.632 214.064 128.353 215.822 129.073 217.457H124.784H120.53ZM149.042 198.174V224.646H152.54V208.861V206.857L169.608 225.051V198.385H166.11V213.01V216.121L149.042 198.174ZM183.671 198.385V224.646H188.259H198.542V221.166H188.259H187.169V220.059V214.346V213.256H188.259H195.694V209.775H188.259H187.169V208.668V202.955V201.865H188.259H198.542V198.385H183.671ZM216.366 198.438H210.495V201.9H216.366H217.474V202.99V224.576H220.972V202.99V201.9H222.079H227.95V198.438H222.079H216.366ZM139.011 248.379H130.433V283.207H139.011C141.519 283.207 143.862 282.785 146.019 281.895C148.198 281.051 150.12 279.785 151.784 278.121L151.808 278.098C153.354 276.551 154.503 274.699 155.276 272.543C156.026 270.387 156.425 268.137 156.425 265.816C156.425 263.52 156.026 261.293 155.276 259.113C154.503 256.934 153.354 255.059 151.808 253.512L151.784 253.488C150.097 251.824 148.175 250.559 146.019 249.691C144.19 248.941 142.175 248.52 139.995 248.379H139.011ZM139.034 278.566H136.526H135.05V277.113V254.426V252.973H136.526H138.987C140.862 252.973 142.573 253.277 144.12 253.84C145.69 254.473 147.073 255.363 148.245 256.512C149.417 257.73 150.308 259.09 150.894 260.637C151.456 262.184 151.761 263.895 151.761 265.77C151.761 267.691 151.456 269.402 150.894 270.926C150.308 272.496 149.44 273.879 148.269 275.074C147.05 276.27 145.69 277.137 144.167 277.699C142.62 278.285 140.909 278.566 139.058 278.566H139.034Z" fill="white"/>
<defs>
<filter id="filter0_d" x="88.6489" y="2.07349" width="112.455" height="112.455" filterUnits="userSpaceOnUse" color-interpolation-filters="sRGB">
<feFlood flood-opacity="0" result="BackgroundImageFix"/>
<feColorMatrix in="SourceAlpha" type="matrix" values="0 0 0 0 0 0 0 0 0 0 0 0 0 0 0 0 0 0 127 0"/>
<feOffset dy="4"/>
<feGaussianBlur stdDeviation="5"/>
<feColorMatrix type="matrix" values="0 0 0 0 0 0 0 0 0 0 0 0 0 0 0 0 0 0 1 0"/>
<feBlend mode="normal" in2="BackgroundImageFix" result="effect1_dropShadow"/>
<feBlend mode="normal" in="SourceGraphic" in2="effect1_dropShadow" result="shape"/>
</filter>
<linearGradient id="paint0_linear" x1="142.304" y1="59.4846" x2="142.304" y2="727.598" gradientUnits="userSpaceOnUse">
<stop stop-color="#680057"/>
<stop offset="1" stop-color="#680057" stop-opacity="0"/>
</linearGradient>
<linearGradient id="paint1_linear" x1="141.949" y1="521.959" x2="141.949" y2="2377.85" gradientUnits="userSpaceOnUse">
<stop stop-color="#FE4A4B"/>
<stop offset="0.1217" stop-color="#F03433"/>
</linearGradient>
<linearGradient id="paint2_linear" x1="183.708" y1="78.9559" x2="91.5093" y2="0.112053" gradientUnits="userSpaceOnUse">
<stop stop-color="#EA5252"/>
<stop offset="1" stop-color="#BD14C0"/>
</linearGradient>
<linearGradient id="paint3_linear" x1="81.1525" y1="79.1752" x2="154.617" y2="-21.3521" gradientUnits="userSpaceOnUse">
<stop stop-color="#FF884B"/>
<stop offset="1" stop-color="#E8DB7F"/>
</linearGradient>
<linearGradient id="paint4_linear" x1="203.339" y1="37.3355" x2="106.537" y2="98.2963" gradientUnits="userSpaceOnUse">
<stop stop-color="#FD8E4F"/>
<stop offset="1" stop-color="#F1BA6B"/>
</linearGradient>
</defs>
</svg>
