<svg width="285" height="726" viewBox="0 0 285 726" fill="none" xmlns="http://www.w3.org/2000/svg">
<rect width="284.087" height="668.113" rx="10" transform="matrix(-1 0 0 1 284.261 57.4111)" fill="url(#paint0_linear)"/>
<mask id="mask0" mask-type="alpha" maskUnits="userSpaceOnUse" x="0" y="57" width="285" height="669">
<rect width="284.087" height="668.113" rx="10" transform="matrix(-1 0 0 1 284.261 57.4111)" fill="white"/>
</mask>
<g mask="url(#mask0)">
<path d="M-344.062 941.134C-344.062 1213.02 -123.654 1433.43 148.232 1433.43C420.119 1433.43 640.526 1213.02 640.526 941.134C640.526 669.248 420.119 448.84 148.232 448.84C-123.654 448.84 -344.062 669.248 -344.062 941.134Z" fill="#4974E3"/>
</g>
<g filter="url(#filter0_d)">
<path d="M135.573 106.6C107.793 106.6 85.2726 84.0799 85.2726 56.3C85.2726 28.5201 107.793 6 135.573 6C163.352 6 185.873 28.5201 185.873 56.3C185.873 84.0799 163.352 106.6 135.573 106.6Z" fill="url(#paint1_linear)"/>
</g>
<path d="M50.9316 222.503H54.4297V215.102V214.012H55.5195H59.7734C60.9863 214.012 62.1113 213.802 63.166 213.38C64.2031 212.958 65.1699 212.307 66.0488 211.428C66.9102 210.567 67.5605 209.618 68 208.598C68.4219 207.579 68.6328 206.436 68.6328 205.206C68.6328 203.993 68.4219 202.868 68 201.813C67.543 200.776 66.8926 199.827 66.0312 198.966C65.1348 198.087 64.1855 197.436 63.166 197.014C62.1289 196.593 61.0039 196.364 59.7734 196.364H55.5195H50.9316V205.188V215.102V222.503ZM54.4297 209.46V205.188V200.917V199.827H55.5195H59.7734C60.5117 199.827 61.2148 199.968 61.8477 200.231C62.4805 200.512 63.043 200.899 63.5703 201.427C64.0977 202.007 64.4844 202.587 64.7305 203.167C64.9941 203.782 65.1348 204.468 65.1348 205.206C65.1348 205.979 64.9941 206.665 64.7305 207.262C64.4492 207.895 64.0625 208.475 63.5703 209.003C63.0078 209.548 62.4277 209.934 61.8301 210.18C61.1973 210.444 60.5117 210.567 59.7734 210.567L55.5195 210.55H54.4297V209.46ZM81.6582 196.364V222.503H96.5293V219.057H86.2461H85.1562V217.95V196.364H81.6582ZM119.715 196.118L108.482 222.503H112.227L114.16 218.196H119.697H125.27L127.203 222.503H130.947L119.715 196.118ZM115.443 215.384C116.146 213.749 116.85 211.991 117.57 210.093C118.291 208.212 119.012 206.436 119.732 204.784C120.436 206.436 121.139 208.212 121.842 210.093C122.545 211.991 123.266 213.749 123.986 215.384H119.697H115.443ZM143.955 196.1V222.573H147.453V206.788V204.784L164.521 222.977V196.311H161.023V210.936V214.048L143.955 196.1ZM178.584 196.311V222.573H183.172H193.455V219.093H183.172H182.082V217.985V212.272V211.182H183.172H190.607V207.702H183.172H182.082V206.594V200.882V199.792H183.172H193.455V196.311H178.584ZM211.279 196.364H205.408V199.827H211.279H212.387V200.917V222.503H215.885V200.917V199.827H216.992H222.863V196.364H216.992H211.279ZM139.713 246.094C137.979 246.282 136.338 246.68 134.838 247.29C132.775 248.157 130.854 249.469 129.119 251.204C127.338 253.009 126.049 254.93 125.229 256.969C124.361 259.032 123.939 261.282 123.939 263.743C123.939 266.227 124.361 268.501 125.229 270.516C126.049 272.602 127.338 274.524 129.119 276.259C130.83 277.993 132.729 279.305 134.838 280.149C136.924 281.016 139.174 281.438 141.611 281.438C142.854 281.438 144.049 281.321 145.174 281.087C146.252 280.899 147.354 280.548 148.479 280.055C149.51 279.634 150.541 279.071 151.525 278.391C152.088 278.016 152.604 277.641 153.072 277.243L149.744 273.891C148.83 274.665 147.799 275.298 146.627 275.766C145.033 276.423 143.369 276.727 141.635 276.727C139.877 276.727 138.213 276.423 136.666 275.766C135.072 275.134 133.689 274.196 132.494 272.93C131.229 271.712 130.291 270.305 129.635 268.759C129.002 267.259 128.697 265.594 128.697 263.766C128.697 261.985 129.002 260.344 129.635 258.798H129.658C130.291 257.251 131.229 255.868 132.494 254.602C133.713 253.384 135.119 252.423 136.666 251.743C138.213 251.11 139.877 250.782 141.635 250.782C143.369 250.782 145.033 251.11 146.58 251.743C147.705 252.235 148.736 252.868 149.697 253.641L153.049 250.29C152.58 249.915 152.064 249.54 151.502 249.141C150.564 248.532 149.557 247.993 148.455 247.477C147.377 247.009 146.275 246.657 145.15 246.423C143.979 246.212 142.783 246.094 141.588 246.094H139.713Z" fill="white"/>
<defs>
<filter id="filter0_d" x="75.2725" y="0" width="120.6" height="120.6" filterUnits="userSpaceOnUse" color-interpolation-filters="sRGB">
<feFlood flood-opacity="0" result="BackgroundImageFix"/>
<feColorMatrix in="SourceAlpha" type="matrix" values="0 0 0 0 0 0 0 0 0 0 0 0 0 0 0 0 0 0 127 0"/>
<feOffset dy="4"/>
<feGaussianBlur stdDeviation="5"/>
<feColorMatrix type="matrix" values="0 0 0 0 0 0 0 0 0 0 0 0 0 0 0 0 0 0 1 0"/>
<feBlend mode="normal" in2="BackgroundImageFix" result="effect1_dropShadow"/>
<feBlend mode="normal" in="SourceGraphic" in2="effect1_dropShadow" result="shape"/>
</filter>
<linearGradient id="paint0_linear" x1="142.043" y1="0" x2="142.043" y2="668.113" gradientUnits="userSpaceOnUse">
<stop stop-color="#024594" stop-opacity="0.79"/>
<stop offset="1" stop-color="#004F68" stop-opacity="0"/>
</linearGradient>
<linearGradient id="paint1_linear" x1="93.3206" y1="83.1267" x2="193.641" y2="-2.66275" gradientUnits="userSpaceOnUse">
<stop stop-color="#1BBFE3"/>
<stop offset="1" stop-color="#1459C0"/>
</linearGradient>
</defs>
</svg>
