<svg width="285" height="669" viewBox="0 0 285 669" fill="none" xmlns="http://www.w3.org/2000/svg">
<mask id="mask0" mask-type="alpha" maskUnits="userSpaceOnUse" x="0" y="0" width="285" height="669">
<path d="M274.361 0H10.2607C4.76074 0 0.260742 4.5 0.260742 10V658.1C0.260742 663.6 4.76074 668.1 10.2607 668.1H274.361C279.861 668.1 284.361 663.6 284.361 658.1V10C284.361 4.5 279.861 0 274.361 0Z" fill="#024594"/>
</mask>
<g mask="url(#mask0)">
<path d="M0.86084 480.3L5.26086 466.1C5.66086 464.8 6.86086 464.201 8.26086 464.001C13.4609 463.401 27.2608 463.1 42.3608 459.9C43.6608 459.6 45.0609 460.1 45.7609 461.3L52.5609 473.1C52.4609 473.1 7.56084 479.2 0.86084 480.3Z" fill="#1BBFE3"/>
<path opacity="0.5" d="M0.86084 480.3C0.86084 480.3 5.26086 466 5.26086 466.1C5.26086 466.2 5.56085 463.9 9.56085 463.9C13.5609 463.9 9.56085 463.9 9.56085 463.9L11.8608 463.7C11.8608 463.7 8.76083 477.7 9.16083 479.1C9.46083 480.5 9.16083 479.1 9.16083 479.1C9.16083 479.1 5.06084 479.6 0.86084 480.3Z" fill="#024594"/>
<path d="M135.561 474.3L143.761 458.6C144.461 457.2 146.061 456.7 147.661 456.8C153.861 457.2 170.061 459.8 188.361 459.3C189.961 459.3 191.461 460.1 191.961 461.6L197.361 476.8C197.361 476.8 143.661 474.4 135.561 474.3Z" fill="#1BBFE3"/>
<path opacity="0.5" d="M135.561 474.3C135.561 474.3 143.761 458.5 143.761 458.6C143.661 458.7 144.561 456.1 149.261 456.9C153.961 457.7 149.261 456.9 149.261 456.9L158.461 457.8C158.461 457.8 155.061 473.2 155.161 474.9C155.261 476.6 145.561 474.6 145.561 474.6C145.561 474.6 140.561 474.4 135.561 474.3Z" fill="#024594"/>
<path d="M68.9609 473.8L73.1609 463.4C73.5609 462.5 74.4609 462 75.4609 462C79.4609 461.8 89.761 462.4 101.261 461C102.261 460.9 103.261 461.3 103.661 462.3L108.061 471.5C108.061 471.5 74.0609 473.3 68.9609 473.8Z" fill="#179AAF"/>
<path opacity="0.5" d="M68.9609 473.8C68.9609 473.8 73.1609 463.3 73.1609 463.4C73.1609 463.5 73.461 461.8 76.561 462C79.561 462.2 76.561 462 76.561 462H78.261C78.261 462 75.161 472.3 75.261 473.4C75.461 474.5 75.261 473.4 75.261 473.4C75.261 473.4 72.0609 473.5 68.9609 473.8Z" fill="#024594"/>
<path d="M223.261 475.6L230.061 463.7C230.661 462.6 231.861 462.3 233.161 462.4C237.961 462.9 250.461 465.4 264.661 465.5C265.961 465.5 267.061 466.2 267.461 467.4L271.261 479.4C271.261 479.4 229.561 475.9 223.261 475.6Z" fill="#179AAF"/>
<path opacity="0.5" d="M223.261 475.6C223.261 475.6 230.061 463.6 230.061 463.7C230.061 463.8 230.761 461.801 234.361 462.501C237.961 463.301 234.361 462.501 234.361 462.501L236.461 462.801C236.461 462.801 230.861 474.8 230.961 476.1C230.961 477.4 230.961 476.1 230.961 476.1C230.961 476.1 227.161 475.8 223.261 475.6Z" fill="#024594"/>
<path d="M1064.16 1392.9C1064.16 1905.4 648.661 2320.8 136.261 2320.8C-376.239 2320.9 -791.739 1905.4 -791.739 1392.9C-791.739 880.4 -376.239 465 136.161 465C648.661 465 1064.16 880.4 1064.16 1392.9Z" fill="url(#paint0_linear)"/>
<path d="M204.761 466.5C204.761 466.5 276.561 481.9 276.361 493C276.161 504.1 214.561 527.1 185.161 524.3C155.661 521.5 161.461 564 166.761 573.4C172.061 582.8 117.961 603.4 77.5608 581.8C37.2608 560.3 -21.0392 639.9 -17.9392 644C-14.8392 648.1 -21.0392 654.9 9.66081 680.1C40.2608 705.3 180.361 748.2 196.061 722.6C211.861 697.1 137.761 623.9 172.761 606.9C207.761 589.8 262.161 609 260.561 578C258.961 547 254.161 533.3 266.761 524.3C279.261 515.3 328.061 507.9 327.161 491.7C327.161 491.7 293.661 475.2 284.361 475.6C271.661 473.6 258.461 471.9 244.761 470.3C230.961 468.7 217.661 467.4 204.761 466.5Z" fill="#1176C1"/>
<path d="M36.2609 519.4C36.2609 519.4 34.5608 535.1 24.8608 539.1C24.8608 539.1 90.9609 555.6 130.261 532.1C130.261 532.1 125.361 532.1 122.961 515.2L36.2609 519.4Z" fill="url(#paint1_linear)"/>
<path d="M123.061 515.8C123.361 521.5 104.061 526 79.9609 527.3C55.8609 528.6 36.1609 526.4 35.8609 520.6C35.5609 514.9 54.7609 507.9 78.8609 506.6C102.961 505.3 122.761 510.1 123.061 515.8Z" fill="#1AB5E0"/>
<path d="M118.259 516.519C118.461 520.713 101.185 524.261 79.6649 525.552C58.1451 526.842 40.4646 525.337 40.2625 521.143C40.0604 516.949 57.3369 511.572 78.8566 510.281C100.477 508.991 118.057 512.325 118.259 516.519Z" fill="#024594"/>
<path d="M79.776 526.068C101.117 524.914 118.261 521.073 118.067 517.488C117.873 513.904 100.415 511.934 79.074 513.088C57.7327 514.242 40.5893 518.083 40.7831 521.667C40.9769 525.252 58.4346 527.222 79.776 526.068Z" fill="#1176C1"/>
<g style="mix-blend-mode:overlay">
<path d="M113.061 509.6C115.461 510 117.761 510.8 119.961 512C120.461 512.3 121.061 512.7 121.461 513.1C121.961 513.5 122.361 514.1 122.561 514.7C122.661 515 122.761 515.4 122.761 515.8C122.761 516.2 122.661 516.5 122.561 516.8C122.361 517.5 121.861 518 121.461 518.5C119.561 520.3 117.361 521.3 115.061 522.2C112.761 523.1 110.461 523.7 108.061 524.3C109.161 523.8 110.361 523.4 111.461 522.9C112.561 522.5 113.661 522 114.761 521.5C116.961 520.5 119.161 519.4 120.761 517.8C121.561 517 122.061 516 121.661 515C121.361 514 120.361 513.2 119.461 512.6C118.461 511.9 117.461 511.4 116.361 510.9C115.361 510.5 114.261 510.1 113.061 509.6Z" fill="#3A3A3A"/>
</g>
<g style="mix-blend-mode:overlay">
<path d="M67.3607 508.5C65.5607 508.8 63.7607 509.3 61.9607 509.7C60.1607 510.2 58.3607 510.7 56.6607 511.2C53.1607 512.3 49.6607 513.4 46.1607 514.7C44.4607 515.4 42.7607 516.1 41.1607 516.9C40.3607 517.3 39.5607 517.8 38.8607 518.3C38.1607 518.8 37.4607 519.4 37.0607 520.1C36.6607 520.8 36.7607 521.6 37.3607 522.2C37.9607 522.8 38.7607 523.3 39.5607 523.6C41.1607 524.4 42.9607 524.9 44.7607 525.4C42.9607 525.1 41.1607 524.7 39.3607 524C38.4607 523.6 37.6607 523.2 36.8607 522.5C36.4607 522.2 36.1607 521.7 36.0607 521.2C35.9607 520.7 36.0607 520.1 36.2607 519.6C36.7607 518.7 37.4607 518 38.2607 517.4C39.0607 516.8 39.8607 516.3 40.6607 515.9C42.3607 515 44.0607 514.3 45.7607 513.6C49.2607 512.3 52.7607 511.2 56.3607 510.3C60.0607 509.6 63.6607 508.8 67.3607 508.5Z" fill="#3A3A3A"/>
</g>
<path d="M236.861 484.9C236.861 484.9 234.661 492.3 229.661 493.4C229.661 493.4 260.061 507.2 281.161 499.3C281.161 499.3 278.761 498.9 279.161 490.5L236.861 484.9Z" fill="url(#paint2_linear)"/>
<path d="M279.061 490.8C278.661 493.6 269.061 494.1 257.261 492.6C245.561 491.1 236.261 488.3 236.561 485.5C236.961 482.7 246.761 481 258.561 482.5C270.361 484 279.361 488 279.061 490.8Z" fill="#1AB5E0"/>
<path d="M276.761 491C276.561 492.9 267.661 493.3 257.261 492C246.861 490.7 238.461 487.9 238.761 486C238.961 484.1 247.961 482.801 258.361 484.101C268.761 485.401 276.961 489.1 276.761 491Z" fill="#024594"/>
<path d="M276.499 491.213C276.722 489.46 268.465 486.963 258.055 485.637C247.646 484.31 239.026 484.656 238.803 486.41C238.579 488.163 246.837 490.659 257.246 491.986C267.656 493.312 276.275 492.966 276.499 491.213Z" fill="#1176C1"/>
<g style="mix-blend-mode:overlay">
<path d="M274.761 487C275.961 487.3 277.061 487.8 278.061 488.6C278.561 489 279.061 489.5 279.161 490.3C279.261 490.7 279.161 491.1 278.961 491.5C278.761 491.8 278.461 492.1 278.261 492.3C277.161 493 275.961 493.3 274.761 493.5C273.561 493.7 272.361 493.7 271.161 493.7C272.361 493.3 273.461 493.1 274.561 492.8C275.661 492.5 276.861 492.1 277.661 491.5C278.061 491.2 278.361 490.9 278.261 490.5C278.261 490.1 277.861 489.6 277.561 489.2C276.661 488.4 275.761 487.7 274.761 487Z" fill="#3A3A3A"/>
</g>
<g style="mix-blend-mode:overlay">
<path d="M252.761 482.401C250.961 482.501 249.161 482.801 247.361 483.001C245.561 483.201 243.761 483.501 242.061 483.801C241.161 484.001 240.361 484.201 239.461 484.401C238.661 484.601 237.761 485.001 237.261 485.501C237.061 485.701 237.061 486.001 237.161 486.301C237.361 486.601 237.661 486.9 238.061 487.2C238.761 487.8 239.561 488.201 240.361 488.601C239.461 488.301 238.661 488.001 237.861 487.601C237.461 487.401 237.061 487.1 236.761 486.7C236.561 486.5 236.461 486.201 236.461 485.901C236.461 485.601 236.561 485.301 236.761 485.001C237.061 484.601 237.561 484.301 237.961 484.101C238.361 483.901 238.861 483.701 239.261 483.601C240.161 483.301 241.061 483.101 241.961 482.901C243.761 482.601 245.561 482.401 247.361 482.301C249.161 482.101 250.961 482.101 252.761 482.401Z" fill="#3A3A3A"/>
</g>
<path d="M185.161 621.6C185.161 621.6 182.161 636.8 172.361 640C172.361 640 235.861 661.9 276.461 642.2C276.461 642.2 271.661 641.8 270.761 625L185.161 621.6Z" fill="url(#paint3_linear)"/>
<path d="M270.761 625.5C270.561 631.1 251.261 633.9 227.461 633.1C203.661 632.3 184.561 628.4 184.761 622.8C184.961 617.2 204.361 611.9 228.161 612.7C251.961 613.5 270.861 619.9 270.761 625.5Z" fill="#199CD7"/>
<path d="M266.26 626.324C266.159 630.704 248.857 632.614 227.609 631.827C206.361 631.041 189.16 627.896 189.261 623.516C189.362 619.136 206.766 615.317 228.115 616.103C249.262 617.002 266.361 621.944 266.26 626.324Z" fill="#024594"/>
<path d="M265.683 626.798C265.8 623.265 248.846 619.837 227.814 619.14C206.783 618.443 189.638 620.743 189.521 624.276C189.404 627.808 206.359 631.237 227.39 631.934C248.422 632.63 265.566 630.331 265.683 626.798Z" fill="#1176C1"/>
<path d="M261.461 618.6C263.761 619.2 266.061 620.2 268.061 621.6C268.561 622 269.061 622.4 269.461 622.8C269.861 623.3 270.261 623.8 270.461 624.5C270.561 624.8 270.561 625.2 270.561 625.6C270.461 625.9 270.461 626.3 270.261 626.6C269.961 627.2 269.461 627.7 269.061 628.2C267.061 629.8 264.761 630.6 262.461 631.3C260.161 632 257.761 632.4 255.361 632.7C256.461 632.3 257.661 632 258.761 631.6C259.861 631.3 261.061 630.9 262.161 630.5C264.361 629.7 266.661 628.8 268.361 627.4C269.161 626.7 269.861 625.7 269.561 624.8C269.361 623.8 268.461 623 267.661 622.2C266.761 621.5 265.761 620.8 264.761 620.2C263.661 619.7 262.561 619.2 261.461 618.6Z" fill="#3A3A3A"/>
<path d="M216.661 613.6C214.861 613.7 213.061 614 211.261 614.4C209.461 614.7 207.661 615 205.861 615.4C202.261 616.1 198.761 616.9 195.261 617.9C193.561 618.4 191.761 618.9 190.161 619.6C189.361 619.9 188.561 620.3 187.761 620.8C187.061 621.2 186.261 621.8 185.861 622.4C185.361 623 185.461 623.8 185.961 624.5C186.461 625.1 187.261 625.7 187.961 626.1C189.461 627 191.161 627.7 192.861 628.3C191.061 627.8 189.361 627.3 187.661 626.5C186.861 626.1 186.061 625.6 185.361 624.9C185.061 624.5 184.761 624.1 184.661 623.5C184.561 623 184.761 622.4 185.061 622C185.561 621.1 186.361 620.6 187.161 620.1C187.961 619.6 188.761 619.2 189.661 618.8C191.361 618.1 193.061 617.5 194.861 617C198.361 616 201.961 615.2 205.561 614.7C209.361 614.1 212.961 613.5 216.661 613.6Z" fill="#3A3A3A"/>
</g>
<defs>
<linearGradient id="paint0_linear" x1="136.21" y1="464.991" x2="136.21" y2="2320.89" gradientUnits="userSpaceOnUse">
<stop stop-color="#1BBFE3"/>
<stop offset="0.0338021" stop-color="#1AAFDD"/>
<stop offset="0.103" stop-color="#1894D4"/>
<stop offset="0.1827" stop-color="#177ECD"/>
<stop offset="0.2757" stop-color="#156DC7"/>
<stop offset="0.3907" stop-color="#1562C3"/>
<stop offset="0.552" stop-color="#145BC1"/>
<stop offset="1" stop-color="#1459C0"/>
</linearGradient>
<linearGradient id="paint1_linear" x1="130.332" y1="530.018" x2="24.8856" y2="530.018" gradientUnits="userSpaceOnUse">
<stop stop-color="#1AB5E0"/>
<stop offset="0.2908" stop-color="#1AB2DF" stop-opacity="0.7674"/>
<stop offset="0.4832" stop-color="#19A9DC" stop-opacity="0.6135"/>
<stop offset="0.6471" stop-color="#189AD7" stop-opacity="0.4823"/>
<stop offset="0.795" stop-color="#1785CF" stop-opacity="0.364"/>
<stop offset="0.9309" stop-color="#156AC6" stop-opacity="0.2553"/>
<stop offset="1" stop-color="#1459C0" stop-opacity="0.2"/>
</linearGradient>
<linearGradient id="paint2_linear" x1="281.228" y1="498.366" x2="230.384" y2="489.073" gradientUnits="userSpaceOnUse">
<stop stop-color="#1AB5E0"/>
<stop offset="0.2908" stop-color="#1AB2DF"/>
<stop offset="0.4832" stop-color="#19A9DC" stop-opacity="0.6135"/>
<stop offset="0.6471" stop-color="#189AD7" stop-opacity="0.4823"/>
<stop offset="0.795" stop-color="#1785CF" stop-opacity="0.364"/>
<stop offset="0.9309" stop-color="#156AC6" stop-opacity="0.2553"/>
<stop offset="1" stop-color="#1459C0" stop-opacity="0.2"/>
</linearGradient>
<linearGradient id="paint3_linear" x1="276.616" y1="640.117" x2="173.121" y2="631.076" gradientUnits="userSpaceOnUse">
<stop stop-color="#199BD7"/>
<stop offset="0.3267" stop-color="#1998D6" stop-opacity="0.7386"/>
<stop offset="0.5428" stop-color="#188FD3" stop-opacity="0.5657"/>
<stop offset="0.7269" stop-color="#1780CE" stop-opacity="0.4185"/>
<stop offset="0.8921" stop-color="#156BC6" stop-opacity="0.2863"/>
<stop offset="1" stop-color="#1459C0" stop-opacity="0.2"/>
</linearGradient>
</defs>
</svg>
