<svg width="198" height="198" viewBox="0 0 198 198" fill="none" xmlns="http://www.w3.org/2000/svg">
<path d="M99.5726 148.6C71.7927 148.6 49.2726 126.08 49.2726 98.3C49.2726 70.5201 71.7927 48 99.5726 48C127.353 48 149.873 70.5201 149.873 98.3C149.873 126.08 127.353 148.6 99.5726 148.6Z" fill="url(#paint0_linear)"/>
<mask id="mask0" mask-type="alpha" maskUnits="userSpaceOnUse" x="49" y="48" width="101" height="101">
<path d="M99.3001 148.6C71.5201 148.6 49.0001 126.08 49.0001 98.3C49.0001 70.5201 71.5201 48 99.3001 48C127.08 48 149.6 70.5201 149.6 98.3C149.6 126.08 127.08 148.6 99.3001 148.6Z" fill="url(#paint1_linear)"/>
</mask>
<g mask="url(#mask0)">
<g style="mix-blend-mode:overlay" opacity="0.6">
<path d="M55.4999 65.4999C58.4999 64.8333 65.5999 63.6999 69.9999 64.4999C75.4999 65.4999 80.4999 62.9999 81.4999 60.9999C82.4999 58.9999 88.4999 55.9999 90.9999 56.4999C93.4999 56.9999 100.5 58 103 54C105 50.8 106.833 45.6667 107.5 43.5L117.5 45.5C117.167 46 110.773 47.4568 112 54C113.5 62 104.5 64.0001 103.5 63C102.5 61.9999 88.9999 64.4999 87.9999 67C85.9489 72.1277 68.4999 74.5 67.9999 73.5C67.554 72.6082 50.4048 73.3071 46.7006 74.1781C46.2598 74.5259 45.9999 74.6621 45.9999 74.5C45.9999 74.3918 46.2514 74.2837 46.7006 74.1781C48.4358 72.8087 52.9747 68.1581 55.4999 65.4999Z" fill="#A6E5E9"/>
</g>
<g style="mix-blend-mode:overlay" opacity="0.6">
<path d="M95.4999 115C93.4999 123.4 64.3333 108.5 49.9999 100L49.9999 124C59.9999 130 82.9999 126.5 88.9999 128.5C96.4999 131 122 116.5 123.5 107C124.7 99.4 153.167 87.8333 160 80.5L150.5 63.5C141.667 64.8333 124 71.6 124 88C124 108.5 109 106.5 106.5 105.5C104 104.5 97.9999 104.5 95.4999 115Z" fill="#A6E5E9"/>
</g>
<ellipse cx="128.663" cy="137.146" rx="7.15367" ry="5.41051" transform="rotate(-42.5486 128.663 137.146)" fill="#04244D"/>
<ellipse cx="128.951" cy="136.82" rx="7" ry="5" transform="rotate(-42.5486 128.951 136.82)" fill="#034FAF"/>
<ellipse cx="130.603" cy="62.0684" rx="7.89176" ry="6.06318" transform="rotate(-136.458 130.603 62.0684)" fill="#04244D"/>
<ellipse cx="130.653" cy="62.0946" rx="7.75901" ry="5.54215" transform="rotate(-136.458 130.653 62.0946)" fill="#034FAF"/>
<g opacity="0.8">
<ellipse cx="54.4116" cy="116.138" rx="7.15367" ry="5.41051" transform="rotate(60.6605 54.4116 116.138)" fill="#04244D"/>
<ellipse cx="54.6631" cy="116.493" rx="7" ry="5" transform="rotate(60.6605 54.6631 116.493)" fill="#034FAF"/>
</g>
<ellipse cx="78.7266" cy="77.5822" rx="11.1287" ry="8.19318" transform="rotate(-43.0047 78.7266 77.5822)" fill="#052C56"/>
<ellipse cx="79.3059" cy="78.4364" rx="11.1287" ry="8.19318" transform="rotate(-43.0047 79.3059 78.4364)" fill="#0765B9"/>
<ellipse rx="8.25883" ry="6.04268" transform="matrix(-0.960884 -0.276952 0.190304 -0.981725 88.3565 131.344)" fill="#052C56"/>
<ellipse rx="8.25883" ry="6.04268" transform="matrix(-0.960884 -0.276952 0.190304 -0.981725 88.6129 130.639)" fill="#0765B9"/>
<ellipse rx="8.25883" ry="6.04268" transform="matrix(-0.112065 0.993701 -0.999732 -0.0231499 130.588 99.5498)" fill="#052C56"/>
<ellipse rx="8.25883" ry="6.04268" transform="matrix(-0.112065 0.993701 -0.999732 -0.0231499 129.849 99.4153)" fill="#0765B9"/>
</g>
<defs>
<linearGradient id="paint0_linear" x1="57.3207" y1="125.127" x2="157.641" y2="39.3372" gradientUnits="userSpaceOnUse">
<stop stop-color="#1BBFE3"/>
<stop offset="1" stop-color="#1459C0"/>
</linearGradient>
<linearGradient id="paint1_linear" x1="57.0481" y1="125.127" x2="157.369" y2="39.3372" gradientUnits="userSpaceOnUse">
<stop stop-color="#1BBFE3"/>
<stop offset="1" stop-color="#1459C0"/>
</linearGradient>
</defs>
</svg>
