<svg width="198" height="198" viewBox="0 0 198 198" fill="none" xmlns="http://www.w3.org/2000/svg">
<g filter="url(#filter0_d)">
<path d="M98.9937 148.6C71.2138 148.6 48.6937 126.08 48.6937 98.3C48.6937 70.5201 71.2138 48 98.9937 48C126.774 48 149.294 70.5201 149.294 98.3C149.294 126.08 126.774 148.6 98.9937 148.6Z" fill="url(#paint0_linear)"/>
<mask id="mask0" mask-type="alpha" maskUnits="userSpaceOnUse" x="48" y="48" width="102" height="101">
<path d="M98.7211 148.6C70.9412 148.6 48.4211 126.08 48.4211 98.3C48.4211 70.5201 70.9412 48 98.7211 48C126.501 48 149.021 70.5201 149.021 98.3C149.021 126.08 126.501 148.6 98.7211 148.6Z" fill="url(#paint1_linear)"/>
</mask>
<g mask="url(#mask0)">
<g style="mix-blend-mode:overlay" opacity="0.6">
<path d="M54.921 65.4999C57.921 64.8333 65.021 63.6999 69.421 64.4999C74.921 65.4999 79.921 62.9999 80.921 60.9999C81.921 58.9999 87.921 55.9999 90.421 56.4999C92.921 56.9999 99.921 58 102.421 54C104.421 50.8 106.254 45.6667 106.921 43.5L116.921 45.5C116.588 46 110.194 47.4568 111.421 54C112.921 62 103.921 64.0001 102.921 63C101.921 61.9999 88.421 64.4999 87.421 67C85.37 72.1277 67.921 74.5 67.421 73.5C66.9751 72.6082 49.8258 73.3071 46.1217 74.1781C45.6809 74.5259 45.421 74.6621 45.421 74.5C45.421 74.3918 45.6725 74.2837 46.1217 74.1781C47.8569 72.8087 52.3958 68.1581 54.921 65.4999Z" fill="#A6E5E9"/>
</g>
<g style="mix-blend-mode:overlay" opacity="0.6">
<path d="M94.921 115C92.921 123.4 63.7544 108.5 49.421 100L49.421 124C59.421 130 82.421 126.5 88.421 128.5C95.921 131 121.421 116.5 122.921 107C124.121 99.4 152.588 87.8333 159.421 80.5L149.921 63.5C141.088 64.8333 123.421 71.6 123.421 88C123.421 108.5 108.421 106.5 105.921 105.5C103.421 104.5 97.421 104.5 94.921 115Z" fill="#A6E5E9"/>
</g>
<ellipse cx="128.084" cy="137.146" rx="7.15367" ry="5.41051" transform="rotate(-42.5486 128.084 137.146)" fill="#04244D"/>
<ellipse cx="128.373" cy="136.82" rx="7" ry="5" transform="rotate(-42.5486 128.373 136.82)" fill="#034FAF"/>
<ellipse cx="130.024" cy="62.0684" rx="7.89176" ry="6.06318" transform="rotate(-136.458 130.024 62.0684)" fill="#04244D"/>
<ellipse cx="130.074" cy="62.0946" rx="7.75901" ry="5.54215" transform="rotate(-136.458 130.074 62.0946)" fill="#034FAF"/>
<g opacity="0.8">
<ellipse cx="53.8327" cy="116.138" rx="7.15367" ry="5.41051" transform="rotate(60.6605 53.8327 116.138)" fill="#04244D"/>
<ellipse cx="54.0842" cy="116.493" rx="7" ry="5" transform="rotate(60.6605 54.0842 116.493)" fill="#034FAF"/>
</g>
<ellipse cx="78.1476" cy="77.5822" rx="11.1287" ry="8.19318" transform="rotate(-43.0047 78.1476 77.5822)" fill="#052C56"/>
<ellipse cx="78.727" cy="78.4364" rx="11.1287" ry="8.19318" transform="rotate(-43.0047 78.727 78.4364)" fill="#0765B9"/>
<ellipse rx="8.25883" ry="6.04268" transform="matrix(-0.960884 -0.276952 0.190304 -0.981725 87.7775 131.344)" fill="#052C56"/>
<ellipse rx="8.25883" ry="6.04268" transform="matrix(-0.960884 -0.276952 0.190304 -0.981725 88.034 130.639)" fill="#0765B9"/>
<ellipse rx="8.25883" ry="6.04268" transform="matrix(-0.112065 0.993701 -0.999732 -0.0231499 130.009 99.5498)" fill="#052C56"/>
<ellipse rx="8.25883" ry="6.04268" transform="matrix(-0.112065 0.993701 -0.999732 -0.0231499 129.271 99.4153)" fill="#0765B9"/>
</g>
</g>
<defs>
<filter id="filter0_d" x="44.4211" y="48" width="108.873" height="108.6" filterUnits="userSpaceOnUse" color-interpolation-filters="sRGB">
<feFlood flood-opacity="0" result="BackgroundImageFix"/>
<feColorMatrix in="SourceAlpha" type="matrix" values="0 0 0 0 0 0 0 0 0 0 0 0 0 0 0 0 0 0 127 0"/>
<feOffset dy="4"/>
<feGaussianBlur stdDeviation="2"/>
<feColorMatrix type="matrix" values="0 0 0 0 0 0 0 0 0 0 0 0 0 0 0 0 0 0 0.25 0"/>
<feBlend mode="normal" in2="BackgroundImageFix" result="effect1_dropShadow"/>
<feBlend mode="normal" in="SourceGraphic" in2="effect1_dropShadow" result="shape"/>
</filter>
<linearGradient id="paint0_linear" x1="56.7417" y1="125.127" x2="157.062" y2="39.3372" gradientUnits="userSpaceOnUse">
<stop stop-color="#1BBFE3"/>
<stop offset="1" stop-color="#1459C0"/>
</linearGradient>
<linearGradient id="paint1_linear" x1="56.4692" y1="125.127" x2="156.79" y2="39.3372" gradientUnits="userSpaceOnUse">
<stop stop-color="#1BBFE3"/>
<stop offset="1" stop-color="#1459C0"/>
</linearGradient>
</defs>
</svg>
