<svg width="198" height="198" viewBox="0 0 198 198" fill="none" xmlns="http://www.w3.org/2000/svg">
<g filter="url(#filter0_d)">
<path d="M141.356 125.217C156.094 101.887 149.127 71.0263 125.796 56.2891C102.466 41.552 71.6053 48.5184 56.8681 71.8492C42.1309 95.1799 49.0974 126.04 72.4282 140.777C95.7589 155.515 126.619 148.548 141.356 125.217Z" fill="#00FFD1"/>
</g>
<path opacity="0.1" d="M146.502 128.468C163.035 102.295 155.219 67.6758 129.047 51.1434C102.874 34.611 68.2547 42.4261 51.7223 68.5988C35.1899 94.7716 43.005 129.391 69.1777 145.923C95.3505 162.456 129.97 154.641 146.502 128.468Z" fill="url(#paint0_radial)"/>
<path opacity="0.1" d="M151.751 131.783C170.114 102.712 161.434 64.258 132.362 45.8946C103.291 27.5312 64.837 36.2118 46.4736 65.2833C28.1101 94.3548 36.7908 132.808 65.8623 151.172C94.9337 169.535 133.387 160.855 151.751 131.783Z" fill="url(#paint1_radial)"/>
<path opacity="0.1" d="M159.5 136.678C180.567 103.327 170.609 59.2119 137.257 38.145C103.906 17.0781 59.7909 27.0367 38.724 60.3882C17.6571 93.7397 27.6157 137.854 60.9672 158.921C94.3186 179.988 138.433 170.03 159.5 136.678Z" fill="url(#paint2_radial)"/>
<path fill-rule="evenodd" clip-rule="evenodd" d="M142.295 125.81C149.721 114.054 151.756 100.427 149.054 87.8255C147.726 94.0988 136.288 130.164 132.978 136.563C132.856 136.734 132.713 136.93 132.541 137.168L132.54 137.17C136.243 133.963 139.544 130.166 142.295 125.81ZM148.523 85.764L148.84 86.8721C146.429 76.5886 140.847 67.0434 132.454 59.8311C131.91 72.4924 117.447 135.339 112.737 147.759C119.409 145.915 125.72 142.718 131.222 138.272C135.021 129.557 145.534 101.306 148.523 85.764ZM106.826 149.025C100.879 149.936 94.758 149.804 88.7579 148.563C88.903 148.558 89.0247 148.537 89.119 148.499C90.5046 147.945 114.576 85.4198 106.095 47.9238C113.102 48.8862 120.02 51.3271 126.389 55.3503C127.206 55.866 128.002 56.4009 128.779 56.9542C126.401 79.7673 118.815 128.644 106.826 149.025ZM84.583 147.513C80.1899 146.207 75.9007 144.284 71.8352 141.716C69.8418 140.457 67.9652 139.083 66.2088 137.607C67.9563 135.648 80.3025 93.8864 78.0155 87.1521C76.13 81.6003 83.1518 59.4857 86.8983 49.1224L87.003 48.9129C92.2194 47.6405 97.6326 47.1862 103.033 47.5973C102.839 47.6326 102.641 47.6778 102.443 47.7345C102.635 49.1745 102.042 51.4226 101.318 54.1686L101.318 54.1687C99.9488 59.3625 98.1096 66.3374 100.223 72.995C103.213 82.4179 99.9312 88.7778 96.5707 95.2902C94.3842 99.5276 92.1644 103.829 91.6173 109.082C91.2271 112.827 91.5967 115.613 91.9375 118.181C92.8088 124.749 93.4908 129.889 80.7913 146.001C81.758 146.426 83.1773 147.01 84.583 147.513ZM75.1116 53.437C78.014 51.8958 81.0502 50.6431 84.1732 49.6895L83.9566 50.2308C80.5864 55.9083 74.4842 70.7692 75.7948 87.1521C77.1199 103.716 68.4878 126.229 63.9333 135.577C60.7957 132.604 58.0978 129.287 55.8618 125.725C55.3095 114.059 58.6139 89.3327 75.1116 53.437ZM55.9294 71.2561C60.3116 64.3185 66.0885 58.7965 72.6648 54.8242C65.1978 71.1012 53.312 102.461 54.0382 122.575C45.7007 106.909 45.7737 87.3338 55.9294 71.2561Z" fill="url(#paint3_linear)"/>
<defs>
<filter id="filter0_d" x="20.1841" y="24.605" width="157.856" height="157.856" filterUnits="userSpaceOnUse" color-interpolation-filters="sRGB">
<feFlood flood-opacity="0" result="BackgroundImageFix"/>
<feColorMatrix in="SourceAlpha" type="matrix" values="0 0 0 0 0 0 0 0 0 0 0 0 0 0 0 0 0 0 127 0"/>
<feOffset dy="5"/>
<feGaussianBlur stdDeviation="5"/>
<feColorMatrix type="matrix" values="0 0 0 0 0 0 0 0 0 0 0 0 0 0 0 0 0 0 1 0"/>
<feBlend mode="normal" in2="BackgroundImageFix" result="effect1_dropShadow"/>
<feBlend mode="normal" in="SourceGraphic" in2="effect1_dropShadow" result="shape"/>
</filter>
<radialGradient id="paint0_radial" cx="0" cy="0" r="1" gradientUnits="userSpaceOnUse" gradientTransform="translate(99.1123 98.5333) rotate(29.331) scale(162.069)">
<stop stop-color="#00FFD1"/>
<stop offset="1" stop-color="#00FFD1" stop-opacity="0"/>
</radialGradient>
<radialGradient id="paint1_radial" cx="0" cy="0" r="1" gradientUnits="userSpaceOnUse" gradientTransform="translate(99.1121 98.5332) rotate(29.331) scale(180.019)">
<stop stop-color="#00FFD1"/>
<stop offset="1" stop-color="#00FFD1" stop-opacity="0"/>
</radialGradient>
<radialGradient id="paint2_radial" cx="0" cy="0" r="1" gradientUnits="userSpaceOnUse" gradientTransform="translate(99.1122 98.5332) rotate(29.331) scale(206.522)">
<stop stop-color="#00FFD1"/>
<stop offset="1" stop-color="#00FFD1" stop-opacity="0"/>
</radialGradient>
<linearGradient id="paint3_linear" x1="56" y1="73" x2="131.5" y2="135" gradientUnits="userSpaceOnUse">
<stop stop-color="#00A958"/>
<stop offset="1" stop-color="#028144"/>
</linearGradient>
</defs>
</svg>
