<svg width="285" height="669" viewBox="0 0 285 669" fill="none" xmlns="http://www.w3.org/2000/svg">
<mask id="mask0" mask-type="alpha" maskUnits="userSpaceOnUse" x="0" y="0" width="285" height="669">
<rect width="284.087" height="668.113" rx="12" transform="matrix(-1 0 0 1 284.534 0.715332)" fill="white"/>
</mask>
<g mask="url(#mask0)">
<path d="M-791.366 1403.9C-791.366 1916.4 -375.866 2331.8 136.534 2331.8C649.034 2331.8 1064.53 1916.3 1064.53 1403.9C1064.53 891.4 649.034 476 136.634 476C-375.866 475.9 -791.366 891.4 -791.366 1403.9Z" fill="url(#paint0_linear)"/>
<path d="M29.2344 467.3C29.2344 467.3 27.3344 461.5 24.5344 461.6C21.8344 461.7 14.6344 459.7 11.5344 468.4C8.13442 477.9 5.73447 476.7 9.83447 479.3C12.0345 480.7 20.6344 479 20.6344 479L29.2344 467.3Z" fill="#4C4C4C"/>
<path d="M40.6344 477.4C40.6344 477.4 46.6345 475.3 43.9345 467.6C41.2345 459.9 27.4345 468.3 27.4345 468.3C27.4345 468.3 18.0345 473.6 18.5345 474.9C19.0345 476.2 13.6344 479.7 13.6344 479.7C13.6344 479.7 39.0344 477.6 40.6344 477.4Z" fill="#818181"/>
<path d="M171.535 369.6H156.335L146.335 368.2L128.635 369.6C128.635 369.6 101.035 377.3 96.9346 375.3C92.8346 373.3 74.4346 398 74.4346 402.1C74.4346 406.2 83.6345 412.8 85.1345 417.9C86.6345 423 91.2346 448 88.7346 450.1C86.1346 452.1 77.4346 471 77.4346 471H102.535H204.135L171.535 369.6Z" fill="#4C4C4C"/>
<path d="M150.834 459.7V445.5C150.834 445.5 150.234 442.4 145.534 444.9C145.534 444.9 133.334 444.9 132.234 443.7C132.234 443.7 132.134 443.7 132.034 443.5C132.034 443.5 131.834 442.8 131.534 442.5C131.534 442.5 130.735 441.8 130.435 441.8C130.135 441.8 129.234 444.1 129.234 444.1C129.234 444.1 128.034 447.5 128.034 448.5C127.934 449.4 124.534 464.9 125.134 465.6C125.734 466.3 147.534 466.7 147.534 466.7L150.834 459.7Z" fill="#4C4C4C"/>
<path d="M152.535 369.8C152.535 369.8 136.335 381.3 134.035 387C131.635 392.7 135.735 426.6 132.635 432.6C132.635 432.6 128.935 435.5 126.135 435.5C123.435 435.5 113.835 440.6 113.835 449.1C113.835 457.6 109.735 464.2 109.735 464.2L124.035 474.7C124.035 474.7 127.535 442 131.035 442.4C131.035 442.4 133.535 442.8 133.735 444.3C133.935 445.8 145.435 445.8 145.435 445.8C145.435 445.8 139.935 404.1 148.135 405.6C148.135 405.6 152.035 427.6 152.335 436.5C152.735 445.4 152.335 470.5 152.335 470.5H170.335C170.335 470.5 164.935 424.4 170.335 408.4C175.735 392.4 173.135 370.7 173.135 370.7C173.135 370.7 163.535 371.5 152.535 369.8Z" fill="#FF6700"/>
<path d="M150.735 368.8C150.735 368.8 134.535 380.3 132.235 386C129.835 391.7 133.934 425.6 130.834 431.6C130.834 431.6 127.134 434.5 124.334 434.5C121.634 434.5 112.035 439.6 112.035 448.1C112.035 456.6 107.935 463.2 107.935 463.2L122.235 473.7C122.235 473.7 125.735 441 129.235 441.4C129.235 441.4 131.735 441.8 131.935 443.3C132.235 444.8 143.634 444.8 143.634 444.8C143.634 444.8 138.134 403.1 146.334 404.6C146.334 404.6 150.235 426.6 150.535 435.5C150.935 444.4 150.535 469.5 150.535 469.5H168.535C168.535 469.5 163.135 423.4 168.535 407.4C173.935 391.4 171.334 369.7 171.334 369.7C171.334 369.7 161.735 370.5 150.735 368.8Z" fill="#FC3C00"/>
<path d="M232.234 407.2C232.234 407.2 224.434 406.7 219.934 401.2C215.434 395.7 204.234 367.2 204.234 367.2L179.334 357L161.934 384.6C161.934 384.6 161.934 393.1 157.834 393.1L154.834 393.2L162.834 397.5L166.134 407.3C166.134 407.3 172.534 407.3 174.034 409.6C175.534 411.9 178.934 422.6 178.934 422.6L185.034 429.7L183.034 442.7L216.934 440.1L232.234 407.2Z" fill="#383838"/>
<path d="M147.035 408C147.035 408 144.735 416.9 145.235 420.7C145.735 424.5 148.435 454.3 147.035 455.2C145.535 456.1 147.435 462.2 147.435 462.7C147.435 463.2 150.835 462.7 150.835 462.7C150.835 462.7 151.735 430 147.035 408Z" fill="#2C2A2D"/>
<path d="M122.735 398.6L123.735 406.8L130.635 414C130.635 414 128.135 427.4 124.435 428.6C120.735 429.8 111.435 433.6 111.435 433.6C111.435 433.6 103.635 432.2 103.035 424.3C102.435 416.4 94.6346 406.8 99.2346 405.1C103.835 403.5 108.435 396.3 108.435 396.3L116.835 392.8C116.835 392.8 121.835 389 125.835 390.2C129.935 391.5 122.735 398.6 122.735 398.6Z" fill="#383838"/>
<path d="M-7.46555 484C-5.96555 483.2 92.2345 470.3 92.2345 470.3C131.835 465.1 144.234 474.7 135.134 476.1C128.934 477 103.634 482.1 67.5345 486.1C67.5345 486.1 96.3345 529.7 148.034 529.2C199.634 528.7 216.934 555.3 249.034 590.5C281.134 625.7 305.034 627.5 305.034 627.5L300.534 666.5C300.534 666.5 234.134 662.5 226.034 639C223.134 630.5 205.634 608 203.034 600.5C197.334 584.7 190.534 571.143 178.034 564C160.534 554 147.934 554.1 107.834 540.9C74.1345 529.8 39.8345 488.7 39.8345 488.7C30.0345 489.5 19.7345 490.1 9.03445 490.5C-56.5656 493.2 -7.46555 484 -7.46555 484Z" fill="#FC3C00"/>
<path d="M65.5344 481.95H48.6345C48.6345 481.95 51.2345 467.85 58.1345 471.65C58.5345 471.85 58.8344 472.55 58.9344 473.25C59.1344 474.65 59.6344 476.65 61.2344 476.45C63.7344 476.15 65.5344 481.95 65.5344 481.95Z" fill="#1E1E1E"/>
<path d="M291.334 395.1C291.334 389.9 287.034 385.8 281.834 386C272.434 386.4 259.534 387.3 259.534 389.3C259.534 392.4 242.634 406.2 238.634 404.6C234.534 403.1 209.534 424.6 209.034 426.9C208.534 429.2 209.535 433.5 205.734 431.7C201.934 429.9 193.234 437.4 192.534 438.6C191.834 439.8 163.334 449.9 161.834 454.3C160.334 458.6 120.734 469.6 112.534 464.5C110.934 463.5 108.734 463.2 106.234 463.5C94.8345 464.9 96.5345 482.1 108.034 481.6C143.134 479.9 216.134 479.6 291.334 499.5V395.1Z" fill="#1C1A1E"/>
<path d="M22.0344 623C26.6344 624.5 30.4344 624.4 33.5344 622.8C39.9344 619.5 42.9344 609.9 46.0344 599.7C47.7344 594.2 49.4343 588.6 51.8344 583.5C58.7344 568.6 61.0343 561.8 61.6343 559.5C47.5343 564.1 33.4343 567.8 24.1343 567.8C20.2343 567.8 17.2344 567.2 15.4344 565.7C2.73439 555.3 -3.46564 554.7 -3.46564 554.7L-3.36566 553.7C-3.06566 553.7 3.13434 554.2 16.1343 564.9C28.7343 575.3 107.034 540.9 107.834 540.6L108.234 541.5C106.534 542.2 84.9344 551.7 62.8344 559.1C62.4343 560.5 60.6343 567.1 52.8344 583.9C50.5344 588.9 48.7343 594.6 47.1343 600C43.9343 610.4 40.9343 620.2 34.1343 623.7C33.1343 624.2 31.9344 624.6 30.8344 624.8C29.1344 626.8 16.7343 641.2 18.1343 650.2C19.6343 659.7 17.1344 675 13.0344 676.2L12.7343 675.2C15.7343 674.3 18.7343 660.5 17.1343 650.3C15.8343 641.6 26.0344 628.8 29.3344 624.9C27.1344 625.1 24.6344 624.7 21.9344 623.8C1.13438 617.1 -6.96566 632.8 -7.36566 633.5L-8.26569 633.1C-8.36568 633 0.434364 616 22.0344 623Z" fill="#FC3C00"/>
<path d="M41.6344 651C43.3344 644.9 67.0344 635.3 83.6344 637.6C99.0344 639.7 100.534 637.5 110.634 622.8C111.334 621.7 112.134 620.6 113.034 619.4C125.234 601.8 195.434 587.6 198.334 587L198.534 588C197.834 588.1 126.634 602.5 114.034 619.7C114.834 620.8 116.534 625 117.734 639.6C118.034 642.9 116.934 645.8 114.734 648.4C105.834 658.3 80.8344 659.3 77.6344 659.4L62.6344 689.7L61.7344 689.3L77.0344 658.5H77.3344C77.6344 658.5 105.034 657.8 114.034 647.8C116.134 645.5 117.034 642.8 116.834 639.8C115.734 626.2 114.134 622 113.534 620.7C112.834 621.7 112.234 622.6 111.634 623.5C101.434 638.2 99.6344 640.9 83.6344 638.7C66.7344 636.4 44.1344 646.3 42.7344 651.4C41.2344 656.9 14.7344 661.6 11.7344 662.2L11.5344 661.2C19.4344 659.7 40.5344 655.2 41.6344 651Z" fill="#FC3C00"/>
<path d="M178.434 533.6C178.734 533.5 186.334 530.2 199.434 534.6C204.134 536.2 206.534 537.5 208.234 538.5C211.234 540.1 212.134 540.6 220.434 539.8C227.234 539.1 230.334 539.1 233.534 539.6C235.034 539.9 236.634 540.2 238.634 540.7C240.534 541.2 242.834 541.7 245.934 542.4C253.334 544 255.334 545.8 256.434 546.9C257.334 547.7 257.634 548 259.934 547.5C265.534 546.3 278.834 547.3 279.434 547.4L279.334 548.4C279.234 548.4 265.634 547.3 260.134 548.5C257.434 549.1 256.834 548.6 255.734 547.6C254.634 546.6 252.734 544.8 245.634 543.3C242.534 542.6 240.234 542.1 238.334 541.6C236.334 541.1 234.834 540.7 233.334 540.5C232.434 540.4 231.634 540.3 230.734 540.2C230.634 541.7 230.634 546.5 234.234 547.6C239.934 549.4 244.634 552.1 246.634 554.8C247.134 555.4 247.434 556 247.834 556.6C249.234 558.9 250.234 560.6 256.034 560.9C261.334 561.2 266.334 565.6 269.934 568.9C271.534 570.3 272.934 571.5 273.934 572.1C277.234 573.8 291.334 574.3 291.534 574.3V575.3C290.934 575.3 277.034 574.8 273.534 573C272.434 572.4 271.034 571.1 269.334 569.7C265.834 566.6 261.034 562.2 256.034 562C249.834 561.7 248.534 559.6 247.034 557.3C246.734 556.7 246.334 556.2 245.934 555.6C244.034 553.1 239.534 550.5 234.034 548.7C229.734 547.4 229.734 542 229.834 540.3C227.634 540.2 224.834 540.4 220.634 540.8C212.034 541.6 211.034 541.1 207.934 539.3C206.234 538.4 203.934 537.1 199.234 535.5C186.634 531.2 179.034 534.4 179.034 534.5L178.434 533.6Z" fill="#FC3C00"/>
</g>
<defs>
<linearGradient id="paint0_linear" x1="136.585" y1="475.911" x2="136.585" y2="2331.81" gradientUnits="userSpaceOnUse">
<stop stop-color="#212121"/>
<stop offset="0.0150176" stop-color="#232323"/>
<stop offset="0.171" stop-color="#2E2E2E"/>
<stop offset="0.3904" stop-color="#353535"/>
<stop offset="1" stop-color="#373737"/>
</linearGradient>
</defs>
</svg>
