<svg width="198" height="198" viewBox="0 0 198 198" fill="none" xmlns="http://www.w3.org/2000/svg">
<path d="M145.403 128.179C161.515 102.672 153.898 68.9341 128.392 52.8225C102.885 36.7109 69.1468 44.3271 53.0352 69.8337C36.9236 95.3404 44.5398 129.079 70.0464 145.19C95.5531 161.302 129.291 153.686 145.403 128.179Z" fill="url(#paint0_radial)"/>
<path d="M151.239 131.865C169.386 103.136 160.808 65.1343 132.078 46.9869C103.348 28.8395 65.3472 37.418 47.1998 66.1476C29.0524 94.8771 37.6309 132.878 66.3604 151.026C95.09 169.173 133.091 160.595 151.239 131.865Z" fill="url(#paint1_radial)"/>
<path d="M159.268 137.227C180.334 103.876 170.376 59.7625 137.025 38.6961C103.674 17.6297 59.5606 27.588 38.4942 60.9387C17.4278 94.2894 27.3862 138.403 60.7368 159.47C94.0875 180.536 138.201 170.578 159.268 137.227Z" fill="url(#paint2_radial)"/>
<g filter="url(#filter0_d)">
<path fill-rule="evenodd" clip-rule="evenodd" d="M99.2674 148.793C105.192 148.793 110.878 147.769 116.157 145.887C116.21 145.826 116.266 145.767 116.313 145.72L116.313 145.719L116.872 141.528L120.784 139.013C120.504 138.361 120.169 136.387 121.063 133.704C122.274 133.797 124.919 133.704 125.813 132.586C126.328 131.943 126.428 131.359 126.522 130.807C126.633 130.16 126.736 129.557 127.49 128.954C128.608 128.06 129.26 126.718 129.446 126.159V125.88L131.402 125.321L131.123 124.203C130.564 123.924 130.061 123.253 132.52 122.806C134.979 122.359 136.897 121.13 137.549 120.571L136.711 118.615C137.456 118.429 139.003 117.665 139.226 116.1C139.45 114.535 139.506 113.026 139.506 112.467C139.226 112.281 138.667 111.853 138.667 111.629C138.667 111.405 139.412 110.791 139.785 110.511L140.344 109.114L142.579 109.673L143.697 109.114L142.859 107.996L142.02 106.879C142.766 106.972 144.368 106.935 144.815 106.04C145.262 105.146 146.864 104.923 147.609 104.923L148.168 104.364L149.301 103.684C149.475 101.979 149.565 100.248 149.565 98.4958C149.565 70.7172 127.046 48.1982 99.2674 48.1982C86.5478 48.1982 74.9309 52.9197 66.0738 60.7056C66.3444 60.5168 66.6052 60.3518 66.8534 60.2139L67.4123 63.5671L66.2945 64.4054L67.4123 64.9642L68.7013 66.5111C68.5571 66.4068 68.3059 66.4181 67.9711 66.9203C67.9235 66.9916 67.8734 67.0699 67.8212 67.1516C67.3826 67.8372 66.7939 68.7574 66.2945 67.7586L65.0948 67.9985C65.0562 68.0706 64.993 68.174 64.8974 68.3174C64.4503 68.9881 66.574 69.7146 67.6917 69.994C67.5985 70.2734 67.3005 70.8323 66.8534 70.8323H64.3385C64.6179 70.5529 65.0091 69.994 64.3385 69.994C63.6679 69.994 62.0099 69.8077 61.2648 69.7146V70.5529L59.3088 69.7146L58.4705 69.1557C58.5964 68.9496 58.7291 68.7402 58.8678 68.5286C52.6491 76.8984 48.9698 87.2675 48.9698 98.4958C48.9698 126.274 71.4888 148.793 99.2674 148.793ZM68.8094 66.6408C68.786 66.594 68.7497 66.546 68.7013 66.5111L68.8094 66.6408ZM151.521 104.643C151.111 113.634 143.701 137.014 118.269 146.837L118.828 142.646L122.74 140.131C122.46 139.479 122.125 137.504 123.019 134.822C124.23 134.915 126.875 134.822 127.769 133.704C128.284 133.061 128.384 132.476 128.478 131.924C128.589 131.277 128.692 130.674 129.446 130.071C130.564 129.177 131.216 127.836 131.402 127.277V126.998L133.358 126.439L133.079 125.321C132.52 125.042 132.017 124.371 134.476 123.924C136.935 123.477 138.854 122.247 139.506 121.688L138.667 119.732C139.412 119.546 140.959 118.782 141.182 117.218C141.406 115.653 141.462 114.144 141.462 113.585C141.182 113.399 140.623 112.97 140.623 112.747C140.623 112.523 141.368 111.908 141.741 111.629L142.3 110.232L144.535 110.791L145.653 110.232L144.815 109.114L143.976 107.996C144.722 108.089 146.324 108.052 146.771 107.158C147.218 106.264 148.82 106.04 149.565 106.04L150.124 105.481L151.521 104.643ZM63.5003 57.1401C60.9854 58.5372 57.1665 62.7287 55.1174 66.0819L55.9557 66.6407L57.9117 67.479V66.6407C58.6568 66.7339 60.3148 66.9201 60.9854 66.9201C61.6561 66.9201 61.2648 67.479 60.9854 67.7584H63.5003C63.9474 67.7584 64.2454 67.1996 64.3386 66.9201C63.2209 66.6407 61.0972 65.9142 61.5443 65.2436C61.6399 65.1001 61.7032 64.9967 61.7417 64.9247L62.9414 64.6847C63.4408 65.6835 64.0295 64.7634 64.4681 64.0777C64.5204 63.9961 64.5705 63.9178 64.618 63.8464C64.9528 63.3443 65.204 63.333 65.3482 63.4372L65.4563 63.567C65.4329 63.5202 65.3966 63.4722 65.3482 63.4372L64.0592 61.8904L62.9414 61.3315L64.0592 60.4932L63.5003 57.1401Z" fill="url(#paint3_linear)"/>
</g>
<mask id="mask0" mask-type="alpha" maskUnits="userSpaceOnUse" x="118" y="104" width="34" height="43">
<path d="M118.269 146.837C143.7 137.014 151.111 113.634 151.521 104.643L150.124 105.481L149.565 106.04C148.82 106.04 147.218 106.264 146.771 107.158C146.323 108.052 144.721 108.089 143.976 107.996L144.815 109.114L145.653 110.232L144.535 110.791L142.3 110.232L141.741 111.629C141.368 111.908 140.623 112.523 140.623 112.747C140.623 112.97 141.182 113.399 141.461 113.585C141.461 114.144 141.406 115.653 141.182 117.217C140.958 118.782 139.412 119.546 138.667 119.732L139.505 121.688C138.853 122.247 136.935 123.477 134.476 123.924C132.017 124.371 132.52 125.042 133.078 125.321L133.358 126.439L131.402 126.998V127.277C131.216 127.836 130.564 129.177 129.446 130.071C128.049 131.189 128.887 132.307 127.769 133.704C126.875 134.822 124.23 134.915 123.019 134.822C122.125 137.504 122.46 139.479 122.74 140.131L118.827 142.646L118.269 146.837Z" fill="#A90C0C"/>
</mask>
<g mask="url(#mask0)">
<path d="M150.962 109.673C149.872 110.017 147.878 110.913 145.932 112.385M139.226 121.409C139.319 121.037 140.12 119.397 142.579 115.821C143.524 114.447 144.718 113.303 145.932 112.385M145.932 112.385C145.932 116.79 144.591 125.768 139.226 126.439C138.474 126.533 137.828 126.658 137.27 126.812M118.268 144.043C119.532 143.279 121.233 142.213 123.019 141.034C124.227 140.236 125.475 139.387 126.651 138.545M134.475 128.421C133.276 129.868 133.428 131.838 132.24 133.704C131.503 134.863 129.249 136.686 126.651 138.545M134.475 128.421C135.221 128.133 136.823 128.339 137.27 131.469C137.717 134.598 135.593 139.852 134.475 142.087M134.475 128.421C135.03 127.752 135.873 127.195 137.27 126.812M135.873 123.365C135.686 124.359 135.705 126.439 137.27 126.812M126.651 138.545C126.372 137.896 125.813 136.498 123.019 135.101" stroke="#FF3D00"/>
</g>
<mask id="mask1" mask-type="alpha" maskUnits="userSpaceOnUse" x="48" y="47" width="102" height="102">
<path d="M99.2675 148.234C127.046 148.234 149.565 125.715 149.565 97.9367C149.565 70.1582 127.046 47.6392 99.2675 47.6392C71.4889 47.6392 48.9699 70.1582 48.9699 97.9367C48.9699 125.715 71.4889 148.234 99.2675 148.234Z" fill="url(#paint4_linear)"/>
</mask>
<g mask="url(#mask1)">
<g filter="url(#filter1_bi)">
<path d="M49.5287 105.761C51.5778 107.903 56.9616 111.406 62.1031 108.276C67.2446 105.146 68.53 106.972 68.53 108.276L73.0009 105.761L75.5158 102.967V105.761C73.5598 106.693 71.9391 107.997 81.1044 105.761C90.2697 103.526 86.5999 108.928 83.6193 111.909M83.6193 111.909L87.8107 98.7754L95.076 102.967L97.8703 98.7754L95.9142 104.643M83.6193 111.909L70.7654 115.821V121.689C71.4175 124.762 70.9331 129.401 63.7797 123.365C56.6262 117.33 56.5145 125.694 57.3528 130.631M95.9142 104.643L100.944 100.452C100.292 99.7068 99.8263 97.6018 103.179 95.1428C107.371 92.0691 109.048 93.1868 109.327 88.9953C109.55 85.6421 111.469 84.6176 112.401 84.5244M95.9142 104.643C98.988 106.972 103.124 112.97 95.076 118.336C87.0283 123.701 90.2325 125.787 92.8405 126.16C96.9388 126.16 104.297 127.054 100.944 130.631C96.7525 135.101 89.2079 133.704 89.2079 137.616C89.2079 140.746 92.1885 146.744 93.6788 149.352M112.401 84.5244C115.661 85.4559 122.181 86.7599 122.181 84.5244C122.181 81.7301 124.696 77.5386 126.093 77.2592C131.123 78.9358 133.079 79.4947 135.035 76.1415C136.823 70.7764 133.544 71.4843 131.681 72.5089C132.054 74.2786 132.576 78.6005 131.681 81.7301C130.564 85.6421 130.005 86.7599 128.049 88.9953C128.049 93.7456 130.284 94.3045 135.035 90.3925C139.785 86.4804 137.549 88.7159 140.623 84.5244C143.697 80.3329 142.3 79.7741 141.741 76.7003C141.741 71.1117 138.201 66.5477 136.432 64.9642C136.991 63.1945 138.835 59.3756 141.741 58.2579M112.401 84.5244C108.023 84.5244 100.05 82.9596 103.179 76.7003C107.091 68.8763 93.6788 76.7003 93.6788 67.4791C93.6788 58.2579 84.1781 61.8905 86.693 56.8607C88.7049 52.8369 95.9142 49.223 99.2674 47.9189M172.478 92.069H167.728" stroke="#FF3D00" stroke-width="5" stroke-linecap="round" stroke-linejoin="round"/>
</g>
<path d="M51.4847 81.7299C54.931 84.7105 62.8296 88.8833 66.8534 81.7299C70.8772 74.5765 76.354 73.1607 78.5895 73.347L93.9582 69.1555" stroke="#FF3D00"/>
<path d="M78.5892 73.3469C77.2852 74.1852 75.0684 77.3148 76.6332 83.127C78.198 88.9392 73.932 92.4414 71.6035 93.466C67.5051 97.1917 58.582 106.487 55.6759 113.864C52.7698 121.241 48.8764 122.899 47.293 122.806" stroke="#FF3D00"/>
<path d="M104.577 47.9189C106.719 48.571 109.718 51.8869 104.577 59.9345C98.1497 69.994 90.0462 82.5684 96.4731 90.113C101.615 96.1487 105.694 106.599 107.091 111.07C107.464 110.605 109.271 110.176 113.518 112.188C118.828 114.703 123.019 117.497 115.474 125.042C109.439 131.078 111.656 143.764 113.518 149.352" stroke="#FF3D00"/>
<path d="M148.727 88.1568C143.417 89.3677 132.967 93.466 133.637 100.172C134.308 106.879 130.191 112.095 128.049 113.864C123.578 113.771 115.977 111.238 121.342 101.849C126.708 92.4601 124.696 85.6419 123.019 83.4065" stroke="#FF3D00"/>
<path d="M104.297 59.3753C105.229 65.5228 108.992 76.4206 116.592 70.832C124.193 65.2433 127.21 65.3365 127.769 66.0816C130.284 68.5034 133.973 70.832 128.608 60.7725C123.243 50.7129 116.872 45.4037 114.357 44.0066" stroke="#FF3D00"/>
<path d="M72.4421 117.218C77.4718 115.82 86.8607 115.653 84.1782 126.159C81.4956 136.666 84.737 145.626 86.6931 148.793" stroke="#FF3D00"/>
</g>
<mask id="mask2" mask-type="alpha" maskUnits="userSpaceOnUse" x="55" y="57" width="11" height="11">
<path d="M55.1172 66.0819C57.1664 62.7288 60.9853 58.5373 63.5002 57.1401L64.059 60.4933L62.9413 61.3316L64.059 61.8905L65.3481 63.4373C65.3964 63.4723 65.4328 63.5202 65.4562 63.5671L65.3481 63.4373C65.2039 63.3331 64.9527 63.3444 64.6179 63.8465C64.1708 64.5171 63.5002 65.8025 62.9413 64.6848L61.7415 64.9247C61.703 64.9968 61.6398 65.1002 61.5442 65.2436C61.0971 65.9143 63.2207 66.6408 64.3385 66.9202C64.2453 67.1997 63.9473 67.7585 63.5002 67.7585H60.9853C61.2647 67.4791 61.6559 66.9202 60.9853 66.9202C60.3147 66.9202 58.6567 66.7339 57.9116 66.6408V67.4791L55.9555 66.6408L55.1172 66.0819Z" fill="#6F2B2B"/>
</mask>
<g mask="url(#mask2)">
<path d="M57.0734 63.2875C57.7254 63.9395 59.3647 64.9082 60.706 63.567C62.3826 61.8904 59.8677 62.4492 61.5443 61.3315C62.8855 60.4373 63.2208 58.3509 63.2208 57.4195L62.1031 56.3018" stroke="#FF3D00"/>
<path d="M57.0734 63.0081V67.1995" stroke="#FF3D00"/>
<path d="M59.5881 64.1257C59.7744 64.6846 60.3146 65.8582 60.9852 66.0817C61.6559 66.3053 62.3824 67.2926 62.6618 67.7583V68.8761" stroke="#FF3D00"/>
</g>
<defs>
<filter id="filter0_d" x="38.9698" y="42.1982" width="122.551" height="120.595" filterUnits="userSpaceOnUse" color-interpolation-filters="sRGB">
<feFlood flood-opacity="0" result="BackgroundImageFix"/>
<feColorMatrix in="SourceAlpha" type="matrix" values="0 0 0 0 0 0 0 0 0 0 0 0 0 0 0 0 0 0 127 0"/>
<feOffset dy="4"/>
<feGaussianBlur stdDeviation="5"/>
<feColorMatrix type="matrix" values="0 0 0 0 0 0 0 0 0 0 0 0 0 0 0 0 0 0 1 0"/>
<feBlend mode="normal" in2="BackgroundImageFix" result="effect1_dropShadow"/>
<feBlend mode="normal" in="SourceGraphic" in2="effect1_dropShadow" result="shape"/>
</filter>
<filter id="filter1_bi" x="37.0287" y="35.4182" width="147.95" height="126.435" filterUnits="userSpaceOnUse" color-interpolation-filters="sRGB">
<feFlood flood-opacity="0" result="BackgroundImageFix"/>
<feGaussianBlur in="BackgroundImage" stdDeviation="5"/>
<feComposite in2="SourceAlpha" operator="in" result="effect1_backgroundBlur"/>
<feBlend mode="normal" in="SourceGraphic" in2="effect1_backgroundBlur" result="shape"/>
<feColorMatrix in="SourceAlpha" type="matrix" values="0 0 0 0 0 0 0 0 0 0 0 0 0 0 0 0 0 0 127 0" result="hardAlpha"/>
<feOffset dy="4"/>
<feGaussianBlur stdDeviation="2"/>
<feComposite in2="hardAlpha" operator="arithmetic" k2="-1" k3="1"/>
<feColorMatrix type="matrix" values="0 0 0 0 0 0 0 0 0 0 0 0 0 0 0 0 0 0 0.25 0"/>
<feBlend mode="normal" in2="shape" result="effect2_innerShadow"/>
</filter>
<radialGradient id="paint0_radial" cx="0" cy="0" r="1" gradientUnits="userSpaceOnUse" gradientTransform="translate(99.2191 99.0064) rotate(57.6036) scale(52.0783)">
<stop stop-color="#FF3E01"/>
<stop offset="1" stop-color="#F83B00" stop-opacity="0.09"/>
</radialGradient>
<radialGradient id="paint1_radial" cx="0" cy="0" r="1" gradientUnits="userSpaceOnUse" gradientTransform="translate(99.2192 99.0064) rotate(57.6036) scale(58.6586)">
<stop stop-color="#FF3E01"/>
<stop offset="1" stop-color="#F83B00" stop-opacity="0.09"/>
</radialGradient>
<radialGradient id="paint2_radial" cx="0" cy="0" r="1" gradientUnits="userSpaceOnUse" gradientTransform="translate(98.8809 99.0828) rotate(57.6036) scale(68.0938)">
<stop stop-color="#FF3E01"/>
<stop offset="1" stop-color="#F83B00" stop-opacity="0.09"/>
</radialGradient>
<linearGradient id="paint3_linear" x1="134.476" y1="135.94" x2="43.6606" y2="51.5514" gradientUnits="userSpaceOnUse">
<stop stop-color="#212121"/>
<stop offset="1" stop-color="#373737"/>
</linearGradient>
<linearGradient id="paint4_linear" x1="75.8512" y1="140.969" x2="122.516" y2="54.0661" gradientUnits="userSpaceOnUse">
<stop stop-color="#C72B3A"/>
<stop offset="1" stop-color="#F67150"/>
</linearGradient>
</defs>
</svg>
