<svg width="130" height="41" viewBox="0 0 130 41" fill="none" xmlns="http://www.w3.org/2000/svg">
<path d="M84.1241 0.00341044C82.6969 0.0283973 81.2691 0.230434 79.862 0.60595C78.0837 1.0807 76.4617 1.75963 75.101 2.59847L74.9989 2.6613H40.6263H6.25436L6.23008 2.61418C6.1644 2.4871 6.05946 2.3229 5.9538 2.18298C5.41409 1.4655 4.60808 0.997887 3.72355 0.887944C2.69766 0.760155 1.6889 1.10569 0.961431 1.83387C0.424571 2.37145 0.0947444 3.06323 0.00978912 3.82854C-0.00520299 3.96418 -0.00234735 4.4218 0.0140726 4.55316C0.0811801 5.09501 0.252518 5.56405 0.54308 6.00239C0.683006 6.21371 0.805798 6.36149 0.998554 6.54925C1.5347 7.07326 2.20292 7.38595 2.9668 7.47091C3.0489 7.47947 3.13671 7.48304 3.30591 7.48304C3.55078 7.48304 3.65644 7.47519 3.86276 7.44021C4.61022 7.31527 5.29415 6.9319 5.80317 6.35221C5.96165 6.17159 6.16226 5.87889 6.24079 5.71469L6.25364 5.68827H38.8993C56.8541 5.68827 71.545 5.6897 71.545 5.69184C71.545 5.69327 71.5 5.75038 71.4443 5.81749C70.9824 6.38219 70.5305 7.02971 70.1814 7.62582C69.289 9.15359 68.7771 10.7335 68.6401 12.3847C68.6122 12.7196 68.6072 12.8516 68.6072 13.2878C68.6072 13.7062 68.6115 13.829 68.6358 14.1445C68.735 15.4167 69.0499 16.7232 69.5746 18.0353C70.4584 20.247 71.8184 22.116 73.6617 23.6538C75.1024 24.856 76.8593 25.8612 78.8732 26.6358C79.58 26.9078 79.8984 27.0113 81.0086 27.3269C81.3148 27.414 81.5704 27.4875 81.5754 27.4911C81.5833 27.4961 81.5333 28.0893 81.2798 30.9835C81.1121 32.9011 80.9729 34.4817 80.9707 34.4967L80.9664 34.5231L82.0973 34.5224C82.7191 34.5224 83.4209 34.5195 83.6564 34.5167C84.0826 34.5109 84.0848 34.5109 84.1162 34.4945C84.1812 34.4617 84.2718 34.356 84.2875 34.2961C84.3004 34.2482 84.3761 33.3922 84.4917 31.978C84.5288 31.5225 84.5745 30.9792 84.5917 30.7715C84.6474 30.1197 84.8337 27.993 84.8422 27.9173L84.8465 27.8766H88.6617C90.8769 27.8766 92.4768 27.8737 92.4768 27.8702C92.4768 27.8623 92.3918 27.4632 92.309 27.0841C92.1134 26.186 92.012 25.6827 91.9299 25.2066C91.885 24.941 91.8264 24.8389 91.6915 24.7854C91.593 24.7461 91.81 24.7489 88.3311 24.7497C85.9809 24.7504 85.1164 24.7482 85.1164 24.7425C85.1164 24.7382 85.2977 22.6986 85.5197 20.2092C85.7418 17.7205 85.9231 15.6794 85.9231 15.6737C85.9231 15.6652 85.9695 15.678 86.1251 15.7294C86.2358 15.7665 86.5513 15.8693 86.8255 15.9579C87.9106 16.3091 88.3447 16.4747 89.0893 16.8217C92.0427 18.1974 94.1109 20.2078 95.2782 22.8385C96.1192 24.734 96.3469 26.563 95.9635 28.3549C95.8165 29.0438 95.578 29.7206 95.2461 30.3895C94.5421 31.8117 93.5234 33.081 92.3055 34.0555C90.6499 35.3798 88.5938 36.2422 86.0766 36.6684C84.8116 36.8826 83.645 36.9468 82.4321 36.8683C80.6951 36.7555 78.9418 36.3286 77.2455 35.6047C75.7556 34.9686 74.5013 34.184 73.4011 33.2002C73.2198 33.0374 72.7422 32.5641 72.5858 32.3921C72.0468 31.7967 71.6049 31.2027 71.203 30.5338C70.9132 30.0512 70.7597 29.7413 70.3206 28.7547C70.21 28.5055 70.0843 28.225 70.0415 28.1322L69.9637 27.9623H68.2853H66.6069L66.594 28.0044C66.5776 28.0593 66.579 28.0686 66.6433 28.3299C66.8324 29.0967 67.0652 29.7949 67.3636 30.4895C68.3538 32.7997 69.9872 34.7922 72.2232 36.4192C73.5553 37.3887 74.9182 38.1483 76.3617 38.7266C78.2486 39.4833 80.2125 39.9088 82.3107 40.0166C82.9982 40.0516 83.7907 40.0487 84.5131 40.0095C85.3099 39.9652 86.1458 39.8738 86.894 39.7489C89.9331 39.2413 92.5489 38.0691 94.7506 36.2286C95.6394 35.4847 96.4861 34.6016 97.1358 33.7378C98.9063 31.3862 99.6887 28.7404 99.4838 25.8027C99.341 23.7638 98.7713 21.9383 97.7383 20.2163C97.2764 19.446 96.7274 18.7086 96.0856 17.9961C95.6744 17.5399 95.1226 16.9959 94.6542 16.5854C92.6903 14.8649 90.3893 13.6391 87.7436 12.9038C87.4002 12.8081 87.0718 12.726 86.6941 12.6418C86.4764 12.5932 86.4336 12.5804 86.3657 12.5447C86.2208 12.4683 86.1858 12.3626 86.2229 12.1113C86.2472 11.9428 86.2722 11.7044 86.305 11.3175C86.3222 11.109 86.3864 10.4172 86.4471 9.77897C86.6177 7.99563 86.6806 7.29171 86.712 6.81625C86.7248 6.61778 86.7798 5.66471 86.7798 5.63616V5.61688H85.1528H83.5258L83.5215 5.65401C83.5194 5.67471 83.3887 7.13108 83.2317 8.89016C83.0746 10.6492 82.944 12.102 82.9418 12.1185L82.9383 12.1492H79.2823H75.6264L75.6307 12.172C75.6357 12.2056 76.2639 15.2704 76.2682 15.2846C76.2718 15.2968 76.4303 15.2975 79.4665 15.2975H82.6605L82.6563 15.3382C82.6541 15.361 82.4778 17.375 82.265 19.8144C82.0523 22.2538 81.8767 24.2506 81.8745 24.2528C81.8724 24.2549 81.7889 24.2342 81.6896 24.2064C79.8413 23.6981 78.2529 22.9663 76.8922 21.9961C76.0012 21.3607 75.2073 20.6233 74.4777 19.7516C73.5561 18.65 72.9014 17.5085 72.5066 16.3148C72.2682 15.5938 72.1347 14.902 72.0804 14.0981C72.0675 13.9125 72.0633 13.4142 72.0725 13.2022C72.1375 11.7244 72.5059 10.3544 73.162 9.14716C73.5139 8.49965 73.9401 7.90353 74.4634 7.3267C74.6005 7.17606 74.9717 6.80554 75.1274 6.66419C75.7442 6.10448 76.4324 5.60118 77.2241 5.13C79.8306 3.58081 82.7284 2.93972 85.8517 3.22243C87.5865 3.37878 89.4113 3.81997 90.9162 4.44607C92.4568 5.08716 93.7597 5.91672 94.8934 6.98045C95.8158 7.84571 96.6125 8.86874 97.2743 10.0381C97.3542 10.1788 97.4206 10.2537 97.512 10.3044L97.5491 10.3251L97.799 10.3294C98.0631 10.3344 101.101 10.338 101.101 10.333C101.101 10.3315 101.093 10.3123 101.083 10.2908C101.074 10.2687 101.011 10.1167 100.944 9.95245C100.787 9.56409 100.757 9.49698 100.623 9.23283C100.113 8.23122 99.9143 7.89354 99.4817 7.28743C98.3473 5.69898 96.993 4.34469 95.4717 3.27811C92.918 1.48834 89.8368 0.426045 86.2158 0.0876518C85.4576 0.0169747 84.8116 -0.00872603 84.1241 0.00341044Z" fill="white"/>
<path d="M21.8282 12.4995C19.4145 12.5494 17.2071 13.1641 15.2674 14.3264C13.2363 15.5421 11.675 17.2113 10.5306 19.388C10.1851 20.0455 9.85954 20.8265 9.63752 21.5333C9.60825 21.6275 9.57755 21.7239 9.57041 21.7475C9.56256 21.771 9.53757 21.8574 9.51401 21.9402C9.1028 23.3837 8.91361 24.9165 8.94288 26.5649C8.97144 28.1684 9.2156 29.624 9.69177 31.0347C10.2372 32.6496 11.1203 34.1866 12.2361 35.4609C12.566 35.8379 12.9686 36.2434 13.347 36.5804C14.3686 37.4884 15.593 38.2673 16.8844 38.8313C18.752 39.6466 20.8445 40.0557 23.1525 40.0557C25.068 40.0557 26.8335 39.7622 28.4655 39.1733C30.4037 38.4736 32.0207 37.4063 33.3115 35.9757C33.4657 35.805 33.6156 35.6287 33.6135 35.6209C33.6099 35.6116 31.5574 33.2521 31.5524 33.2521C31.5495 33.2521 31.4946 33.3106 31.4303 33.382C31.1976 33.6405 30.8256 34.0031 30.5379 34.2523C29.2358 35.3817 27.6437 36.1613 25.8725 36.5389C24.6917 36.7902 23.3667 36.8645 22.046 36.7531C19.7857 36.5625 17.8339 35.815 16.2276 34.5236C15.9221 34.278 15.7 34.0781 15.4031 33.7811C15.1061 33.4834 14.929 33.2878 14.7027 33.0051C13.5469 31.5616 12.8665 29.8525 12.6438 27.8371C12.6302 27.7136 12.6045 27.4302 12.6045 27.403V27.3838H23.9343C34.0889 27.3838 35.264 27.3823 35.264 27.3731C35.264 27.3666 35.2754 27.1168 35.2897 26.8176C35.3133 26.3129 35.3147 26.2508 35.3111 25.9595C35.3047 25.4505 35.2797 24.9979 35.2312 24.5139C34.992 22.0966 34.2531 19.9741 32.9916 18.0815C32.0286 16.6373 30.8214 15.4486 29.3707 14.5177C27.5809 13.369 25.5584 12.7044 23.3453 12.538C23.0155 12.5137 22.3315 12.488 22.1209 12.493C22.0952 12.4938 21.9639 12.4966 21.8282 12.4995ZM22.892 15.6642C24.0628 15.7435 25.0465 15.9576 25.996 16.3403C26.9541 16.7272 27.8008 17.2562 28.6139 17.9773C28.7646 18.1108 29.2029 18.5463 29.3357 18.6955C30.0582 19.5015 30.5936 20.346 31.0127 21.3405C31.3489 22.1394 31.591 23.0339 31.7266 23.9784C31.7523 24.1598 31.7901 24.4782 31.7987 24.5867L31.8037 24.6495H22.2038H12.6045V24.6352C12.6045 24.6274 12.6124 24.5445 12.6224 24.451C12.9144 21.6989 14.0216 19.5008 15.9528 17.8381C16.7274 17.1713 17.614 16.6409 18.5621 16.2768C19.5059 15.9141 20.5139 15.7113 21.6533 15.6542C21.8547 15.6442 22.6985 15.6514 22.892 15.6642Z" fill="white"/>
<path d="M52.2122 12.4965C50.7194 12.5136 49.2409 12.7328 47.9159 13.134C45.6186 13.8286 43.5696 15.0994 42.0105 16.7963C40.8782 18.0285 39.968 19.5228 39.3747 21.1226C38.6765 23.0045 38.3902 25.1412 38.5373 27.3729C38.6737 29.4375 39.2169 31.3751 40.14 33.0913C40.6198 33.983 41.1916 34.8133 41.8241 35.5365C42.1761 35.9384 42.6151 36.3774 43.0171 36.7294C44.3392 37.8859 45.9919 38.8104 47.7039 39.3509C49.0004 39.7607 50.2326 39.9713 51.7446 40.0427C52.0002 40.0548 52.9111 40.0548 53.1582 40.0427C53.9977 40.002 54.6759 39.9241 55.3884 39.7878C57.346 39.4137 59.1629 38.6213 60.5643 37.5297C60.9412 37.2363 61.2175 36.99 61.5716 36.6316C61.9692 36.229 62.2948 35.8427 62.6282 35.3758C62.8045 35.1295 63.0737 34.7147 63.0694 34.6962C63.0672 34.689 60.3508 32.8379 60.3408 32.8379C60.3394 32.8379 60.303 32.8886 60.2608 32.95C59.7354 33.7231 59.0651 34.4313 58.3519 34.9682C57.9292 35.2866 57.5623 35.5129 57.0811 35.7535C55.9046 36.341 54.6031 36.6873 53.226 36.7787C52.7512 36.8101 52.1401 36.8101 51.659 36.7787C50.1676 36.6809 48.814 36.3218 47.5754 35.6971C46.0933 34.9482 44.9146 33.9137 44.0051 32.563C42.955 31.0024 42.3717 29.2027 42.2425 27.123C42.2082 26.5676 42.2082 25.9315 42.2425 25.3882C42.3624 23.5028 42.8622 21.8358 43.7531 20.3502C44.0687 19.824 44.4249 19.3407 44.8311 18.8845C44.9461 18.7553 45.2288 18.4676 45.378 18.3277C46.4467 17.3211 47.8231 16.55 49.3138 16.1217C50.0234 15.9175 50.7587 15.7876 51.534 15.7297C51.861 15.7048 51.9959 15.7005 52.4514 15.7005C52.9083 15.7005 53.0018 15.7033 53.3366 15.729C54.8601 15.8468 56.3415 16.3073 57.5808 17.0491C58.6324 17.678 59.5319 18.5354 60.2694 19.6127C60.3044 19.6634 60.338 19.7055 60.3437 19.7055C60.3572 19.7055 63.0637 17.8672 63.0687 17.8551C63.0758 17.8365 62.7795 17.3824 62.5796 17.1069C62.0785 16.4137 61.4823 15.7726 60.8398 15.2357C59.9703 14.5082 58.9772 13.9221 57.845 13.4681C56.4657 12.9148 54.9822 12.6021 53.3295 12.5164C53.1275 12.5057 52.5007 12.49 52.4014 12.4929C52.3743 12.4943 52.2886 12.4957 52.2122 12.4965Z" fill="white"/>
<path d="M116.214 12.4966C114.756 12.5145 113.326 12.7493 112.024 13.1841C110.516 13.6867 109.094 14.4827 107.886 15.5007C107.392 15.9184 106.895 16.411 106.473 16.9036C105.554 17.9759 104.786 19.2495 104.242 20.6016C104.066 21.0393 103.891 21.5568 103.761 22.0237C103.474 23.0511 103.3 24.1283 103.236 25.2635C103.202 25.8596 103.202 26.627 103.235 27.2089C103.387 29.8175 104.141 32.1227 105.511 34.1652C106.232 35.2389 107.104 36.1884 108.111 36.9966C108.674 37.447 109.277 37.8533 109.932 38.2223C112.097 39.4424 114.601 40.0557 117.421 40.0557C119.9 40.0557 122.153 39.5595 124.124 38.5807C125.128 38.0824 125.994 37.4934 126.803 36.7595C126.946 36.6296 127.373 36.2055 127.502 36.0649C127.597 35.9614 127.799 35.7308 127.855 35.663L127.889 35.6216L127.874 35.6059C127.866 35.5973 127.403 35.0647 126.845 34.4229C126.287 33.7811 125.828 33.255 125.824 33.2535C125.821 33.2528 125.774 33.3007 125.719 33.3606C125.112 34.0281 124.461 34.5857 123.748 35.054C122.212 36.0606 120.402 36.6446 118.417 36.7745C117.856 36.8117 117.187 36.8117 116.61 36.7752C114.53 36.6432 112.722 36.0606 111.181 35.0262C110.654 34.6728 110.189 34.2916 109.725 33.8339C109.215 33.3299 108.834 32.868 108.46 32.299C107.965 31.548 107.577 30.7113 107.312 29.8253C107.101 29.1207 106.965 28.4025 106.89 27.5987C106.883 27.5144 106.876 27.4316 106.876 27.4145V27.3838H118.206H129.536V27.3552C129.536 27.3395 129.547 27.0804 129.561 26.7791C129.589 26.1958 129.59 26.0031 129.571 25.5312C129.462 22.8319 128.775 20.4924 127.481 18.4206C126.337 16.5873 124.822 15.1459 122.937 14.0972C122.71 13.9708 122.217 13.7245 121.993 13.6253C120.505 12.9664 118.995 12.6108 117.276 12.5166C117.084 12.5059 116.487 12.4902 116.393 12.493C116.367 12.4945 116.287 12.4959 116.214 12.4966ZM117.164 15.6642C117.586 15.6928 117.92 15.7299 118.284 15.7906C119.934 16.0626 121.391 16.7237 122.636 17.7638C123.024 18.088 123.45 18.5077 123.775 18.8882C124.648 19.907 125.285 21.1042 125.67 22.4435C125.864 23.121 126.002 23.8606 126.07 24.5974L126.075 24.6495H116.475H106.876V24.6288C106.876 24.5988 106.902 24.3582 106.923 24.189C107.183 22.1144 107.938 20.3311 109.161 18.9011C109.4 18.6227 109.813 18.1993 110.07 17.9723C110.864 17.2677 111.691 16.7451 112.623 16.3596C113.59 15.9591 114.685 15.7192 115.811 15.6614C115.894 15.6571 115.98 15.6528 116.004 15.6514C116.027 15.6499 116.26 15.6499 116.521 15.6507C116.86 15.6521 117.044 15.6564 117.164 15.6642Z" fill="white"/>
<path d="M1.41772 26.2488V39.7988H3.2489H5.08008V26.2488V12.6988H3.2489H1.41772V26.2488Z" fill="white"/>
</svg>
