<svg width="1920" height="437" viewBox="0 0 1920 437" fill="none" xmlns="http://www.w3.org/2000/svg">
<path d="M960 2300C1595.13 2300 2110 1785.13 2110 1150C2110 514.873 1595.13 0 960 0C324.873 0 -190 514.873 -190 1150C-190 1785.13 324.873 2300 960 2300Z" fill="#2A0128"/>
<path d="M960 2264C1575.25 2264 2074 1765.25 2074 1150C2074 534.755 1575.25 36 960 36C344.755 36 -154 534.755 -154 1150C-154 1765.25 344.755 2264 960 2264Z" fill="#370133"/>
<path d="M960 2220C1550.94 2220 2030 1740.94 2030 1150C2030 559.055 1550.94 80 960 80C369.055 80 -110 559.055 -110 1150C-110 1740.94 369.055 2220 960 2220Z" fill="#4D0046"/>
<path d="M764.199 182.559C834.697 166.302 888.928 140.472 885.33 124.866C881.731 109.26 821.664 109.788 751.167 126.045C680.67 142.302 626.438 168.132 630.037 183.738C633.636 199.343 693.702 198.816 764.199 182.559Z" fill="#520652"/>
<path d="M643.3 192.598C633 189.398 630.1 185.698 629.6 182.798C626.8 166.499 691.4 142.799 695.7 141.299C715.3 134.199 734 129.999 743.3 127.899C756.7 124.9 769.7 121.4 785.7 119.3C792.1 118.4 792.7 117.6 804.7 116.3C845.3 112.1 869.3 108.6 877.5 117.7C878 118.2 878 118.4 878.1 118.6C878.4 125.6 801.8 125.1 731.7 148.199C709.1 155.799 678 168.799 643.3 192.598Z" fill="#680071"/>
<path d="M586.26 485.967C672.222 435.594 729.346 373.32 713.848 346.874C698.35 320.429 616.101 339.825 530.138 390.198C444.175 440.571 387.052 502.845 402.55 529.291C418.047 555.737 500.297 536.34 586.26 485.967Z" fill="#520652"/>
<path d="M409.7 536.192C400.2 528.992 399.2 520.292 400.4 513.292C406.9 473.993 491.9 413.694 497.5 409.794C523.2 391.795 546.3 380.695 557.7 375.095C574.3 367.095 590.5 358.195 609.5 352.196C617.1 349.796 618.2 347.596 632.2 343.996C679.4 331.796 707.9 322.196 711.6 343.896C711.8 345.096 711.8 345.596 711.7 346.096C707.9 362.895 623.9 365.495 533.1 424.894C503.7 444.094 461.9 476.893 409.7 536.192Z" fill="#770381"/>
<path d="M1256.55 187.93C1258.13 182.81 1245.96 174.527 1229.39 169.431C1212.81 164.334 1198.1 164.353 1196.53 169.473C1194.95 174.594 1207.11 182.876 1223.69 187.973C1240.26 193.07 1254.98 193.051 1256.55 187.93Z" fill="#520652"/>
<path d="M1196.5 171.199C1196.3 169.099 1197.3 167.999 1198.3 167.299C1204.1 163.499 1221.8 167.299 1223 167.599C1228.3 168.799 1232.5 170.399 1234.5 171.199C1237.5 172.399 1240.5 173.399 1243.5 175.099C1244.7 175.799 1245.1 175.699 1247.2 176.999C1254.3 181.599 1258.9 184.099 1256.6 187.199C1256.5 187.399 1256.4 187.399 1256.3 187.499C1253.7 188.999 1243.5 178.499 1225.2 173.899C1219.4 172.399 1210.3 170.899 1196.5 171.199Z" fill="#760083"/>
<path d="M1730.66 485.879C1743.22 472.832 1705.69 416.284 1646.82 359.575C1587.96 302.866 1530.05 267.47 1517.48 280.516C1504.91 293.562 1542.44 350.11 1601.31 406.82C1660.18 463.529 1718.09 498.925 1730.66 485.879Z" fill="#520652"/>
<path d="M1517.2 298.496C1513.9 286.797 1515.6 281.797 1518 279.497C1531.7 266.797 1593.9 313.296 1598 316.396C1616.7 330.596 1632.3 345.695 1640 353.195C1651.2 364.095 1662.4 374.195 1674.3 387.994C1679.1 393.494 1680.2 393.494 1688.9 404.094C1717.9 439.893 1736.1 460.493 1732.5 473.893C1732.3 474.593 1732.2 474.893 1732 474.993C1725.6 479.593 1678.8 406.794 1613.7 354.795C1592.6 337.996 1561.2 316.596 1517.2 298.496Z" fill="#63056D"/>
</svg>
