<svg width="1920" height="1014" viewBox="0 0 1920 1014" fill="none" xmlns="http://www.w3.org/2000/svg">
<path opacity="0.34" d="M960 3032C1595.13 3032 2110 2517.13 2110 1882C2110 1246.87 1595.13 732 960 732C324.873 732 -190 1246.87 -190 1882C-190 2517.13 324.873 3032 960 3032Z" fill="#470240"/>
<path opacity="0.34" d="M960 2996C1575.25 2996 2074 2497.25 2074 1882C2074 1266.75 1575.25 768 960 768C344.755 768 -154 1266.75 -154 1882C-154 2497.25 344.755 2996 960 2996Z" fill="#500048"/>
<path d="M960 2952C1550.94 2952 2030 2472.94 2030 1882C2030 1291.06 1550.94 812 960 812C369.055 812 -110 1291.06 -110 1882C-110 2472.94 369.055 2952 960 2952Z" fill="#4D0046"/>
<path d="M764.2 914.559C834.697 898.302 888.928 872.472 885.33 856.866C881.731 841.26 821.664 841.788 751.167 858.045C680.67 874.302 626.438 900.132 630.037 915.738C633.636 931.344 693.703 930.816 764.2 914.559Z" fill="#520652"/>
<path d="M643.3 924.598C633 921.398 630.1 917.699 629.6 914.799C626.8 898.499 691.4 874.799 695.7 873.299C715.3 866.2 734 862 743.3 859.9C756.7 856.9 769.7 853.4 785.7 851.3C792.1 850.4 792.7 849.6 804.7 848.3C845.3 844.1 869.3 840.6 877.5 849.7C878 850.2 878 850.4 878.1 850.6C878.4 857.6 801.8 857.1 731.7 880.199C709.1 887.799 678 900.799 643.3 924.598Z" fill="#680071"/>
<path d="M1256.55 919.931C1258.13 914.81 1245.96 906.528 1229.39 901.431C1212.81 896.334 1198.1 896.353 1196.53 901.474C1194.95 906.594 1207.11 914.877 1223.69 919.973C1240.26 925.07 1254.98 925.051 1256.55 919.931Z" fill="#520652"/>
<path d="M1196.5 903.199C1196.3 901.099 1197.3 899.999 1198.3 899.299C1204.1 895.499 1221.8 899.299 1223 899.599C1228.3 900.799 1232.5 902.399 1234.5 903.199C1237.5 904.399 1240.5 905.399 1243.5 907.099C1244.7 907.799 1245.1 907.699 1247.2 908.999C1254.3 913.599 1258.9 916.099 1256.6 919.199C1256.5 919.399 1256.4 919.399 1256.3 919.499C1253.7 920.999 1243.5 910.499 1225.2 905.899C1219.4 904.399 1210.3 902.899 1196.5 903.199Z" fill="#760083"/>
<path d="M1730.66 1217.88C1743.22 1204.83 1705.69 1148.28 1646.82 1091.58C1587.96 1034.87 1530.05 999.47 1517.48 1012.52C1504.91 1025.56 1542.44 1082.11 1601.31 1138.82C1660.18 1195.53 1718.09 1230.93 1730.66 1217.88Z" fill="#590159"/>
<path d="M1517.2 1030.5C1513.9 1018.8 1515.6 1013.8 1518 1011.5C1531.7 998.797 1593.9 1045.3 1598 1048.4C1616.7 1062.6 1632.3 1077.7 1640 1085.2C1651.2 1096.1 1662.4 1106.2 1674.3 1119.99C1679.1 1125.49 1680.2 1125.49 1688.9 1136.09C1717.9 1171.89 1736.1 1192.49 1732.5 1205.89C1732.3 1206.59 1732.2 1206.89 1732 1206.99C1725.6 1211.59 1678.8 1138.79 1613.7 1086.8C1592.6 1070 1561.2 1048.6 1517.2 1030.5Z" fill="#A100B2"/>
<path d="M1129.06 17.4657C1130.49 17.4657 1131.65 16.304 1131.65 14.8709C1131.65 13.4378 1130.49 12.2761 1129.06 12.2761C1127.63 12.2761 1126.46 13.4378 1126.46 14.8709C1126.46 16.304 1127.63 17.4657 1129.06 17.4657Z" fill="white" fill-opacity="0.5"/>
<path d="M890.338 15.736C891.771 15.736 892.933 14.5742 892.933 13.1412C892.933 11.7081 891.771 10.5464 890.338 10.5464C888.905 10.5464 887.743 11.7081 887.743 13.1412C887.743 14.5742 888.905 15.736 890.338 15.736Z" fill="white" fill-opacity="0.5"/>
<path d="M1584.79 658.897C1586.22 658.897 1587.38 657.735 1587.38 656.302C1587.38 654.869 1586.22 653.708 1584.79 653.708C1583.36 653.708 1582.19 654.869 1582.19 656.302C1582.19 657.735 1583.36 658.897 1584.79 658.897Z" fill="white" fill-opacity="0.5"/>
<path d="M135.947 733.108C137.38 733.108 138.542 731.946 138.542 730.513C138.542 729.08 137.38 727.918 135.947 727.918C134.514 727.918 133.352 729.08 133.352 730.513C133.352 731.946 134.514 733.108 135.947 733.108Z" fill="white" fill-opacity="0.5"/>
<path d="M607.766 461.001C609.199 461.001 610.36 459.839 610.36 458.406C610.36 456.973 609.199 455.812 607.766 455.812C606.333 455.812 605.171 456.973 605.171 458.406C605.171 459.839 606.333 461.001 607.766 461.001Z" fill="white" fill-opacity="0.5"/>
<path d="M1650.18 12.1896C1651.61 12.1896 1652.77 11.0278 1652.77 9.59479C1652.77 8.16173 1651.61 7 1650.18 7C1648.74 7 1647.58 8.16173 1647.58 9.59479C1647.58 11.0278 1648.74 12.1896 1650.18 12.1896Z" fill="white" fill-opacity="0.5"/>
<path d="M356.763 130.512C358.196 130.512 359.358 129.35 359.358 127.917C359.358 126.484 358.196 125.322 356.763 125.322C355.33 125.322 354.168 126.484 354.168 127.917C354.168 129.35 355.33 130.512 356.763 130.512Z" fill="white" fill-opacity="0.5"/>
<path d="M425.784 288.102C427.218 288.102 428.379 286.94 428.379 285.507C428.379 284.074 427.218 282.912 425.784 282.912C424.351 282.912 423.19 284.074 423.19 285.507C423.19 286.94 424.351 288.102 425.784 288.102Z" fill="white" fill-opacity="0.5"/>
<path d="M553.188 173.066C554.621 173.066 555.783 171.905 555.783 170.471C555.783 169.038 554.621 167.877 553.188 167.877C551.755 167.877 550.594 169.038 550.594 170.471C550.594 171.905 551.755 173.066 553.188 173.066Z" fill="white" fill-opacity="0.5"/>
<path d="M1408 130.252C1409.43 130.252 1410.59 129.091 1410.59 127.658C1410.59 126.224 1409.43 125.063 1408 125.063C1406.56 125.063 1405.4 126.224 1405.4 127.658C1405.4 129.091 1406.56 130.252 1408 130.252Z" fill="white" fill-opacity="0.5"/>
<path d="M1487.83 294.848C1489.26 294.848 1490.43 293.687 1490.43 292.253C1490.43 290.82 1489.26 289.659 1487.83 289.659C1486.4 289.659 1485.24 290.82 1485.24 292.253C1485.24 293.687 1486.4 294.848 1487.83 294.848Z" fill="white" fill-opacity="0.5"/>
<path d="M1450.47 413.603C1451.9 413.603 1453.06 412.441 1453.06 411.008C1453.06 409.575 1451.9 408.414 1450.47 408.414C1449.03 408.414 1447.87 409.575 1447.87 411.008C1447.87 412.441 1449.03 413.603 1450.47 413.603Z" fill="white" fill-opacity="0.5"/>
<path d="M1282.41 309.12C1283.84 309.12 1285 307.958 1285 306.525C1285 305.092 1283.84 303.93 1282.41 303.93C1280.98 303.93 1279.82 305.092 1279.82 306.525C1279.82 307.958 1280.98 309.12 1282.41 309.12Z" fill="white" fill-opacity="0.5"/>
<path d="M1541.02 126.706C1542.46 126.706 1543.62 125.544 1543.62 124.111C1543.62 122.678 1542.46 121.517 1541.02 121.517C1539.59 121.517 1538.43 122.678 1538.43 124.111C1538.43 125.544 1539.59 126.706 1541.02 126.706Z" fill="white" fill-opacity="0.5"/>
<path d="M1656.41 469.651C1657.84 469.651 1659 468.489 1659 467.056C1659 465.623 1657.84 464.461 1656.41 464.461C1654.97 464.461 1653.81 465.623 1653.81 467.056C1653.81 468.489 1654.97 469.651 1656.41 469.651Z" fill="white" fill-opacity="0.5"/>
<path d="M148.056 558.479C149.489 558.479 150.651 557.317 150.651 555.884C150.651 554.451 149.489 553.289 148.056 553.289C146.623 553.289 145.461 554.451 145.461 555.884C145.461 557.317 146.623 558.479 148.056 558.479Z" fill="white" fill-opacity="0.5"/>
<path d="M272.086 532.012C273.52 532.012 274.681 530.85 274.681 529.417C274.681 527.984 273.52 526.822 272.086 526.822C270.653 526.822 269.492 527.984 269.492 529.417C269.492 530.85 270.653 532.012 272.086 532.012Z" fill="white" fill-opacity="0.5"/>
<path d="M128.595 330.31C130.028 330.31 131.19 329.149 131.19 327.716C131.19 326.283 130.028 325.121 128.595 325.121C127.162 325.121 126 326.283 126 327.716C126 329.149 127.162 330.31 128.595 330.31Z" fill="white" fill-opacity="0.5"/>
<path d="M132.055 72.0426C133.488 72.0426 134.649 70.8809 134.649 69.4478C134.649 68.0148 133.488 66.853 132.055 66.853C130.621 66.853 129.46 68.0148 129.46 69.4478C129.46 70.8809 130.621 72.0426 132.055 72.0426Z" fill="white" fill-opacity="0.5"/>
<path d="M282.466 17.0331C283.899 17.0331 285.06 15.8714 285.06 14.4383C285.06 13.0052 283.899 11.8435 282.466 11.8435C281.033 11.8435 279.871 13.0052 279.871 14.4383C279.871 15.8714 281.033 17.0331 282.466 17.0331Z" fill="white" fill-opacity="0.5"/>
<path d="M581.558 68.3234C582.991 68.3234 584.153 67.1616 584.153 65.7286C584.153 64.2955 582.991 63.1338 581.558 63.1338C580.125 63.1338 578.963 64.2955 578.963 65.7286C578.963 67.1616 580.125 68.3234 581.558 68.3234Z" fill="white" fill-opacity="0.5"/>
<path d="M1530.12 268.213C1533.23 268.213 1535.75 265.691 1535.75 262.579C1535.75 259.467 1533.23 256.944 1530.12 256.944C1527 256.944 1524.48 259.467 1524.48 262.579C1524.48 265.691 1527 268.213 1530.12 268.213Z" fill="white"/>
<path d="M1680 610.429C1683.11 610.429 1685.63 607.906 1685.63 604.794C1685.63 601.682 1683.11 599.16 1680 599.16C1676.89 599.16 1674.36 601.682 1674.36 604.794C1674.36 607.906 1676.89 610.429 1680 610.429Z" fill="white"/>
<path d="M1034.63 702.088C1037.75 702.088 1040.27 699.565 1040.27 696.453C1040.27 693.341 1037.75 690.818 1034.63 690.818C1031.52 690.818 1029 693.341 1029 696.453C1029 699.565 1031.52 702.088 1034.63 702.088Z" fill="white"/>
<path d="M1042.15 141.244C1045.26 141.244 1047.78 138.721 1047.78 135.609C1047.78 132.497 1045.26 129.975 1042.15 129.975C1039.04 129.975 1036.51 132.497 1036.51 135.609C1036.51 138.721 1039.04 141.244 1042.15 141.244Z" fill="white"/>
<path d="M1368.77 21.7875C1371.89 21.7875 1374.41 19.2648 1374.41 16.1528C1374.41 13.0408 1371.89 10.5181 1368.77 10.5181C1365.66 10.5181 1363.14 13.0408 1363.14 16.1528C1363.14 19.2648 1365.66 21.7875 1368.77 21.7875Z" fill="white"/>
</svg>
